<svg width="132" height="47" viewBox="0 0 132 47" fill="none" xmlns="http://www.w3.org/2000/svg">
<path d="M0.56 46H19.184V39.6H7.6V1.2H0.56V46ZM41.5115 11.504C41.5115 8.304 42.9195 7.088 45.1595 7.088C47.3995 7.088 48.8075 8.304 48.8075 11.504V35.696C48.8075 38.896 47.3995 40.112 45.1595 40.112C42.9195 40.112 41.5115 38.896 41.5115 35.696V11.504ZM34.4715 35.248C34.4715 42.416 38.2475 46.512 45.1595 46.512C52.0715 46.512 55.8475 42.416 55.8475 35.248V11.952C55.8475 4.784 52.0715 0.688 45.1595 0.688C38.2475 0.688 34.4715 4.784 34.4715 11.952V35.248ZM83.7825 27.44H86.9825V35.696C86.9825 38.896 85.5745 40.048 83.3345 40.048C81.0945 40.048 79.6865 38.896 79.6865 35.696V11.504C79.6865 8.304 81.0945 7.088 83.3345 7.088C85.5745 7.088 86.9825 8.304 86.9825 11.504V16.304H93.6385V11.952C93.6385 4.784 90.0545 0.688 83.1425 0.688C76.2305 0.688 72.6465 4.784 72.6465 11.952V35.248C72.6465 42.416 76.2305 46.512 83.1425 46.512C90.0545 46.512 93.6385 42.416 93.6385 35.248V21.04H83.7825V27.44ZM117.424 11.504C117.424 8.304 118.832 7.088 121.072 7.088C123.312 7.088 124.72 8.304 124.72 11.504V35.696C124.72 38.896 123.312 40.112 121.072 40.112C118.832 40.112 117.424 38.896 117.424 35.696V11.504ZM110.384 35.248C110.384 42.416 114.16 46.512 121.072 46.512C127.984 46.512 131.76 42.416 131.76 35.248V11.952C131.76 4.784 127.984 0.688 121.072 0.688C114.16 0.688 110.384 4.784 110.384 11.952V35.248Z" fill="#363636"/>
</svg>
