<svg width="52" height="52" viewBox="0 0 52 52" fill="none" xmlns="http://www.w3.org/2000/svg">
<circle cx="26" cy="26" r="26" fill="#E1F7FF"/>
<path d="M36.0625 15.0625H15.9375C15.4535 15.0625 15.0625 15.4535 15.0625 15.9375V36.0625C15.0625 36.5465 15.4535 36.9375 15.9375 36.9375H36.0625C36.5465 36.9375 36.9375 36.5465 36.9375 36.0625V15.9375C36.9375 15.4535 36.5465 15.0625 36.0625 15.0625ZM34.9688 27.75H26.4375V24.25H34.9688V27.75ZM34.9688 34.9688H17.0312V17.0312H34.9688V22.5H25.5625C25.0785 22.5 24.6875 22.891 24.6875 23.375V28.625C24.6875 29.109 25.0785 29.5 25.5625 29.5H34.9688V34.9688ZM27.8594 26C27.8594 26.2901 27.9746 26.5683 28.1797 26.7734C28.3848 26.9785 28.663 27.0938 28.9531 27.0938C29.2432 27.0938 29.5214 26.9785 29.7265 26.7734C29.9316 26.5683 30.0469 26.2901 30.0469 26C30.0469 25.7099 29.9316 25.4317 29.7265 25.2266C29.5214 25.0215 29.2432 24.9062 28.9531 24.9062C28.663 24.9062 28.3848 25.0215 28.1797 25.2266C27.9746 25.4317 27.8594 25.7099 27.8594 26Z" fill="#0594C2"/>
</svg>
