<svg width="120" height="120" viewBox="0 0 120 120" fill="none" xmlns="http://www.w3.org/2000/svg">
<ellipse cx="58.8679" cy="60" rx="58.8679" ry="60" fill="#B3EAC6"/>
<path d="M80.125 81.875H39.875C38.907 81.875 38.125 81.093 38.125 80.125V39.875C38.125 38.907 38.907 38.125 39.875 38.125H80.125C81.093 38.125 81.875 38.907 81.875 39.875V80.125C81.875 81.093 81.093 81.875 80.125 81.875ZM77.9375 56.5H60.875V63.5H77.9375V56.5ZM77.9375 42.0625H42.0625V77.9375H77.9375V67H59.125C58.157 67 57.375 66.218 57.375 65.25V54.75C57.375 53.782 58.157 53 59.125 53H77.9375V42.0625ZM63.7188 60C63.7188 59.4198 63.9492 58.8634 64.3595 58.4532C64.7697 58.043 65.3261 57.8125 65.9062 57.8125C66.4864 57.8125 67.0428 58.043 67.453 58.4532C67.8633 58.8634 68.0937 59.4198 68.0937 60C68.0937 60.5802 67.8633 61.1366 67.453 61.5468C67.0428 61.957 66.4864 62.1875 65.9062 62.1875C65.3261 62.1875 64.7697 61.957 64.3595 61.5468C63.9492 61.1366 63.7188 60.5802 63.7188 60Z" fill="#124022"/>
</svg>
