<svg width="120" height="120" viewBox="0 0 120 120" fill="none" xmlns="http://www.w3.org/2000/svg">
<ellipse cx="58.8679" cy="60" rx="58.8679" ry="60" fill="#F3BDB9"/>
<path d="M80.125 38.125H39.875C38.907 38.125 38.125 38.907 38.125 39.875V80.125C38.125 81.093 38.907 81.875 39.875 81.875H80.125C81.093 81.875 81.875 81.093 81.875 80.125V39.875C81.875 38.907 81.093 38.125 80.125 38.125ZM77.9375 63.5H60.875V56.5H77.9375V63.5ZM77.9375 77.9375H42.0625V42.0625H77.9375V53H59.125C58.157 53 57.375 53.782 57.375 54.75V65.25C57.375 66.218 58.157 67 59.125 67H77.9375V77.9375ZM63.7188 60C63.7188 60.5802 63.9492 61.1366 64.3595 61.5468C64.7697 61.957 65.3261 62.1875 65.9062 62.1875C66.4864 62.1875 67.0428 61.957 67.453 61.5468C67.8633 61.1366 68.0937 60.5802 68.0937 60C68.0937 59.4198 67.8633 58.8634 67.453 58.4532C67.0428 58.043 66.4864 57.8125 65.9062 57.8125C65.3261 57.8125 64.7697 58.043 64.3595 58.4532C63.9492 58.8634 63.7188 59.4198 63.7188 60Z" fill="#3D0E0A"/>
</svg>
