<svg width="414" height="240" viewBox="0 0 414 240" fill="none" xmlns="http://www.w3.org/2000/svg">
<rect x="414" y="-312" width="552" height="414" transform="rotate(90 414 -312)" fill="#E1EBFF"/>
<mask id="mask0_608_3620" style="mask-type:alpha" maskUnits="userSpaceOnUse" x="0" y="-312" width="414" height="552">
<rect x="414" y="-312" width="552" height="414" transform="rotate(90 414 -312)" fill="#060039"/>
</mask>
<g mask="url(#mask0_608_3620)">
<path d="M105.915 251.04C94.8637 251.04 85.905 242.158 85.905 231.202C85.905 220.246 94.8637 211.365 105.915 211.365" stroke="#C9E3FB" stroke-width="4" stroke-linecap="round" stroke-linejoin="round"/>
<path d="M397.095 240C397.095 226.28 408.294 215.16 422.108 215.16C435.922 215.16 447.12 226.28 447.12 240" stroke="#C9E3FB" stroke-width="4" stroke-linecap="round" stroke-linejoin="round"/>
<path d="M291.18 230.34L349.25 230.34C360.622 230.34 369.84 221.071 369.84 209.64C369.84 198.209 360.622 188.94 349.25 188.94L340.262 188.94" stroke="#C9E3FB" stroke-width="4" stroke-linecap="round" stroke-linejoin="round"/>
<path d="M26.2706 140.239C0.701483 133.401 -25.4849 148.194 -32.2205 173.279C-38.9523 198.365 -23.6833 224.247 1.8858 231.086C27.4549 237.924 53.6401 223.131 60.375 198.045" stroke="#C9E3FB" stroke-width="4" stroke-linecap="round" stroke-linejoin="round"/>
<path d="M150.42 192.386C138.797 192.386 129.375 201.657 129.375 213.09C129.375 224.524 138.797 233.79 150.42 233.79C162.043 233.79 171.465 224.524 171.465 213.09L171.465 143.745" stroke="#C9E3FB" stroke-width="4" stroke-linecap="round" stroke-linejoin="round"/>
<path d="M402.342 21.27C402.342 9.07554 392.595 -0.810061 380.571 -0.810062C368.547 -0.810062 358.8 9.07554 358.8 21.27C358.8 33.4644 368.547 43.35 380.571 43.35L450.57 43.35" stroke="#C9E3FB" stroke-width="4" stroke-linecap="round" stroke-linejoin="round"/>
<path d="M-16.5598 3.64679C-5.50845 3.64679 3.45019 12.5349 3.45019 23.4983C3.45019 34.4622 -5.50845 43.3499 -16.5598 43.3499C-27.6112 43.3499 -36.5698 34.4622 -36.5698 23.4983L-36.5698 -8.05518" stroke="#C9E3FB" stroke-width="4" stroke-linecap="round" stroke-linejoin="round"/>
<path d="M256.481 63.8775C256.481 74.8336 247.644 83.7151 236.743 83.7151C225.842 83.7151 217.005 74.8336 217.005 63.8775C217.005 52.9215 225.842 44.04 236.743 44.04L310.5 44.04" stroke="#C9E3FB" stroke-width="4" stroke-linecap="round" stroke-linejoin="round"/>
<path d="M199.755 216.072C199.755 235.387 215.665 251.04 235.29 251.04C254.915 251.04 270.825 235.387 270.825 216.072L270.825 124.425" stroke="#C9E3FB" stroke-width="4" stroke-linecap="round" stroke-linejoin="round"/>
<path fill-rule="evenodd" clip-rule="evenodd" d="M390.023 69.915C408.41 69.915 423.315 84.6601 423.315 102.849L423.315 136.686C423.315 154.876 408.41 169.62 390.023 169.62V169.62C371.636 169.62 356.73 154.876 356.73 136.686L356.73 102.849C356.73 84.6601 371.636 69.915 390.023 69.915V69.915Z" stroke="#C9E3FB" stroke-width="4" stroke-linecap="round" stroke-linejoin="round"/>
<path d="M176.123 -26.3398L206.943 -26.3398C215.739 -26.3398 222.87 -19.1574 222.87 -10.2973V-10.2973C222.87 -1.43731 215.739 5.74515 206.943 5.74515L145.302 5.74514C136.506 5.74514 129.375 -1.43731 129.375 -10.2974V-10.2974V-10.2974C129.375 -19.1574 136.506 -26.3398 145.302 -26.3398L152.749 -26.3398" stroke="#C9E3FB" stroke-width="4" stroke-linecap="round" stroke-linejoin="round"/>
<path d="M340.885 3.3301L338.198 3.3301C322.901 3.3301 310.501 -9.10409 310.501 -24.4424V-24.4424C310.501 -39.7807 322.901 -52.2148 338.198 -52.2148L422.529 -52.2148C437.825 -52.2148 450.226 -39.7807 450.226 -24.4424V-24.4424C450.226 -9.10409 437.825 3.33011 422.529 3.33011L421.702 3.33011" stroke="#C9E3FB" stroke-width="4" stroke-linecap="round" stroke-linejoin="round"/>
<path d="M222.87 -52.9048L142.955 -52.9048C119.069 -52.9048 99.7051 -33.3654 99.7051 -9.26229C99.7051 14.8408 119.069 34.3802 142.955 34.3802L161.836 34.3802" stroke="#C9E3FB" stroke-width="4" stroke-linecap="round" stroke-linejoin="round"/>
<path d="M287.73 63.8773L287.73 83.2599C287.73 96.2763 297.693 106.83 309.983 106.83C322.272 106.83 332.235 96.2763 332.235 83.2599L332.235 44.4947C332.235 31.4774 322.272 20.9248 309.983 20.9248" stroke="#C9E3FB" stroke-width="4" stroke-linecap="round" stroke-linejoin="round"/>
<path d="M34.2102 188.077C34.2102 199.033 25.3921 207.915 14.5176 207.915C3.64321 207.915 -5.1749 199.033 -5.1749 188.077C-5.1749 177.121 3.64322 168.24 14.5176 168.24L142.83 168.24" stroke="#C9E3FB" stroke-width="4" stroke-linecap="round" stroke-linejoin="round"/>
<path d="M21.39 39.5552C41.5866 39.5552 57.96 55.7172 57.96 75.6541L57.96 139.26" stroke="#C9E3FB" stroke-width="4" stroke-linecap="round" stroke-linejoin="round"/>
<path d="M250.125 -54.2852L250.125 -20.3464C250.125 2.44719 268.661 20.9249 291.525 20.9249" stroke="#C9E3FB" stroke-width="4" stroke-linecap="round" stroke-linejoin="round"/>
<path d="M142.141 143.745L123.595 143.745C104.876 143.745 89.7006 128.565 89.7006 109.836L89.7006 83.3701" stroke="#C9E3FB" stroke-width="4" stroke-linecap="round" stroke-linejoin="round"/>
<path d="M234.601 207.915L234.601 178.932C234.601 157.974 217.455 140.985 196.306 140.985" stroke="#C9E3FB" stroke-width="4" stroke-linecap="round" stroke-linejoin="round"/>
<path d="M192.165 63.5324C189.511 63.5324 156.099 63.5324 139.725 63.5324" stroke="#C9E3FB" stroke-width="4" stroke-linecap="round" stroke-linejoin="round"/>
<path d="M49.6807 10.4025C48.598 10.4025 34.9709 10.4024 28.2907 10.4024" stroke="#C9E3FB" stroke-width="4" stroke-linecap="round" stroke-linejoin="round"/>
<path d="M248.056 115.385C249.16 115.385 250.056 114.489 250.056 113.385C250.056 112.28 249.16 111.385 248.056 111.385L248.056 115.385ZM170.977 85.1879L170.977 83.1879L170.977 85.1879ZM168.075 85.1879L168.075 87.1879L168.075 85.1879ZM119.679 96.0488L117.679 96.0488L119.679 96.0488ZM119.679 87.0677L121.679 87.0677L119.679 87.0677ZM121.679 73.9092C121.679 72.8047 120.784 71.9092 119.679 71.9092C118.575 71.9092 117.679 72.8047 117.679 73.9092L121.679 73.9092ZM75.8307 17.1299C75.8307 16.0253 74.9353 15.1299 73.8307 15.1299C72.7261 15.1299 71.8307 16.0253 71.8307 17.1299L75.8307 17.1299ZM73.8307 26.3676L71.8307 26.3676L73.8307 26.3676ZM108.352 62.9313C109.457 62.9313 110.352 62.0358 110.352 60.9313C110.352 59.8267 109.457 58.9313 108.352 58.9313L108.352 62.9313ZM248.056 111.385L198.952 111.385L198.952 115.385L248.056 115.385L248.056 111.385ZM198.952 111.385C192.345 111.385 186.967 105.984 186.967 99.2862L182.967 99.2862C182.967 108.162 190.105 115.385 198.952 115.385L198.952 111.385ZM186.967 99.2862C186.967 90.4097 179.822 83.1879 170.977 83.1879L170.977 87.1879C177.584 87.1879 182.967 92.5898 182.967 99.2862L186.967 99.2862ZM170.977 83.1879L168.075 83.1879L168.075 87.1879L170.977 87.1879L170.977 83.1879ZM168.075 83.1879C159.23 83.1879 152.085 90.4097 152.085 99.2862L156.085 99.2862C156.085 92.5898 161.468 87.1879 168.075 87.1879L168.075 83.1879ZM152.085 99.2862C152.085 105.983 146.702 111.385 140.095 111.385L140.095 115.385C148.94 115.385 156.085 108.163 156.085 99.2862L152.085 99.2862ZM140.095 111.385L136.882 111.385L136.882 115.385L140.095 115.385L140.095 111.385ZM136.882 111.385C128.5 111.385 121.679 104.533 121.679 96.0488L117.679 96.0488C117.679 106.713 126.262 115.385 136.882 115.385L136.882 111.385ZM121.679 96.0488L121.679 87.0677L117.679 87.0677L117.679 96.0488L121.679 96.0488ZM121.679 87.0677L121.679 73.9092L117.679 73.9092L117.679 87.0677L121.679 87.0677ZM71.8307 17.1299L71.8307 26.3676L75.8307 26.3676L75.8307 17.1299L71.8307 17.1299ZM71.8307 26.3676C71.8307 46.559 88.1794 62.9313 108.352 62.9313L108.352 58.9313C90.3932 58.9313 75.8307 44.3545 75.8307 26.3676L71.8307 26.3676Z" fill="#C9E3FB"/>
<path d="M316.047 198.945L309.05 198.945C299.181 198.945 291.18 190.919 291.18 181.025V181.025C291.18 171.126 299.181 163.1 309.05 163.1L314.846 163.1C324.64 163.1 332.58 155.137 332.58 145.317V145.317C332.58 135.493 324.64 127.53 314.846 127.53L307.713 127.53" stroke="#C9E3FB" stroke-width="4" stroke-linecap="round" stroke-linejoin="round"/>
<path fill-rule="evenodd" clip-rule="evenodd" d="M6.91146 63.7051C20.8131 63.7051 32.085 74.9809 32.085 88.8901V88.8901C32.085 102.798 20.8131 114.075 6.91146 114.075L-11.3965 114.075C-25.2981 114.075 -36.57 102.798 -36.57 88.8901V88.8901C-36.57 74.9809 -25.2981 63.7051 -11.3965 63.7051L6.91146 63.7051Z" stroke="#C9E3FB" stroke-width="4" stroke-linecap="round" stroke-linejoin="round"/>
</g>
</svg>
