<svg width="52" height="52" viewBox="0 0 52 52" fill="none" xmlns="http://www.w3.org/2000/svg">
<circle cx="26" cy="26" r="26" fill="#E1F7FF"/>
<path d="M37.25 12.1626V37.5876C37.25 38.8302 36.2426 39.8376 35 39.8376H17C18.2426 39.8376 19.25 38.8302 19.25 37.5876C19.25 36.5909 19.25 13.0547 19.25 12.1626L21.5 14.4126L23.75 12.1626L26 14.4126L28.25 12.1626L30.5 14.4126L32.75 12.1626L35 14.4126L37.25 12.1626Z" fill="#FCFCFC"/>
<path d="M19.25 34.2126V37.5877C19.25 38.8302 18.2426 39.8377 17 39.8377C15.7574 39.8377 14.75 38.8302 14.75 37.5877V34.2126H19.25Z" fill="#BDB960"/>
<path d="M22.625 29.1501C22.9355 29.1501 23.1875 28.8981 23.1875 28.5876C23.1875 28.2772 22.9355 28.0251 22.625 28.0251C22.3145 28.0251 22.0625 28.2772 22.0625 28.5876C22.0625 28.8981 22.3145 29.1501 22.625 29.1501Z" fill="#363636"/>
<path d="M22.625 32.5251C22.9355 32.5251 23.1875 32.2731 23.1875 31.9626C23.1875 31.6522 22.9355 31.4001 22.625 31.4001C22.3145 31.4001 22.0625 31.6522 22.0625 31.9626C22.0625 32.2731 22.3145 32.5251 22.625 32.5251Z" fill="#363636"/>
<path d="M22.625 35.9002C22.9355 35.9002 23.1875 35.6481 23.1875 35.3376C23.1875 35.0272 22.9355 34.7751 22.625 34.7751C22.3145 34.7751 22.0625 35.0272 22.0625 35.3376C22.0625 35.6481 22.3145 35.9002 22.625 35.9002Z" fill="#363636"/>
<path d="M35 40.4001C36.5509 40.4001 37.8125 39.1385 37.8125 37.5876V12.1626C37.8125 11.9352 37.6754 11.73 37.4654 11.6429C37.2551 11.5559 37.0132 11.6041 36.8523 11.7649L35 13.6172L33.1477 11.7649C32.9282 11.5452 32.572 11.5452 32.3523 11.7649L30.5 13.6172L28.6477 11.7649C28.4282 11.5452 28.072 11.5452 27.8523 11.7649L26 13.6172L24.1477 11.7649C23.9282 11.5452 23.572 11.5452 23.3523 11.7649L21.5 13.6172L19.6477 11.7649C19.4869 11.6041 19.245 11.5559 19.0349 11.6429C18.8246 11.73 18.6875 11.9352 18.6875 12.1626V33.6501H14.75C14.4393 33.6501 14.1875 33.9019 14.1875 34.2126V37.5876C14.1875 39.1385 15.4492 40.4001 17 40.4001H35ZM19.8125 13.5207L21.1023 14.8103C21.3218 15.03 21.678 15.03 21.8977 14.8103L23.75 12.9582L25.6023 14.8103C25.8218 15.03 26.178 15.03 26.3977 14.8103L28.25 12.9582L30.1023 14.8103C30.3218 15.03 30.678 15.03 30.8977 14.8103L32.75 12.9582L34.6023 14.8103C34.8218 15.03 35.178 15.03 35.3977 14.8103L36.6875 13.5207V37.5876C36.6875 38.5182 35.9306 39.2751 35 39.2751H19.2485C19.6024 38.8047 19.8125 38.2202 19.8125 37.5876C19.8125 36.6147 19.8125 15.1217 19.8125 13.5207ZM15.3125 37.5876V34.7751H18.6875V37.5876C18.6875 38.5182 17.9305 39.2751 17 39.2751C16.0695 39.2751 15.3125 38.5182 15.3125 37.5876Z" fill="#363636"/>
<path d="M28.2509 23.1875C28.0105 23.1875 27.7512 23.0363 27.5203 22.7621C27.3205 22.5242 26.9657 22.4934 26.7279 22.6936C26.49 22.8933 26.4594 23.2482 26.6594 23.4859C26.96 23.8436 27.3135 24.093 27.6884 24.2185V24.875C27.6884 25.1857 27.9402 25.4375 28.2509 25.4375C28.5616 25.4375 28.8134 25.1857 28.8134 24.875V24.2158C29.4679 23.9836 29.9384 23.3585 29.9384 22.625C29.9384 21.6945 29.1814 20.9375 28.2509 20.9375C27.9406 20.9375 27.6884 20.6853 27.6884 20.375C27.6884 20.065 27.9406 19.8125 28.2509 19.8125C28.4502 19.8125 28.6604 19.9142 28.8593 20.1065C29.0825 20.3227 29.4387 20.3168 29.6547 20.0935C29.8707 19.8703 29.8648 19.5141 29.6415 19.2981C29.3561 19.0219 29.0704 18.8657 28.8134 18.7802V18.125C28.8134 17.8143 28.5616 17.5625 28.2509 17.5625C27.9402 17.5625 27.6884 17.8143 27.6884 18.125V18.7844C27.0336 19.0164 26.5634 19.6418 26.5634 20.375C26.5634 21.3055 27.3203 22.0625 28.2509 22.0625C28.5609 22.0625 28.8134 22.315 28.8134 22.625C28.8134 22.9353 28.5609 23.1875 28.2509 23.1875Z" fill="#363636"/>
<path d="M24.875 29.1501H33.875C34.1857 29.1501 34.4375 28.8983 34.4375 28.5876C34.4375 28.277 34.1857 28.0251 33.875 28.0251H24.875C24.5643 28.0251 24.3125 28.277 24.3125 28.5876C24.3125 28.8983 24.5643 29.1501 24.875 29.1501Z" fill="#363636"/>
<path d="M24.875 32.5251H33.875C34.1857 32.5251 34.4375 32.2733 34.4375 31.9626C34.4375 31.652 34.1857 31.4001 33.875 31.4001H24.875C24.5643 31.4001 24.3125 31.652 24.3125 31.9626C24.3125 32.2733 24.5643 32.5251 24.875 32.5251Z" fill="#363636"/>
<path d="M24.875 35.9002H33.875C34.1857 35.9002 34.4375 35.6483 34.4375 35.3376C34.4375 35.027 34.1857 34.7751 33.875 34.7751H24.875C24.5643 34.7751 24.3125 35.027 24.3125 35.3376C24.3125 35.6483 24.5643 35.9002 24.875 35.9002Z" fill="#363636"/>
</svg>
