<svg width="54" height="54" viewBox="0 0 54 54" fill="none" xmlns="http://www.w3.org/2000/svg">
<circle cx="26" cy="26" r="26" fill="#D1DDFA"/>
<path d="M34.0273 32.5375C32.6237 31.0117 30.4143 30.5293 28.5025 31.331L27.1043 31.9173L24.7094 32.2081C24.0076 32.2933 23.4909 32.9063 23.5257 33.6124C23.5625 34.3618 24.2043 34.9368 24.9532 34.8916L28.7594 34.6615L23.7032 34.2028L18.8419 30.9905C18.3418 30.6599 17.6856 30.6892 17.2168 31.063C16.5081 31.628 16.5252 32.7106 17.2514 33.253L20.719 35.8429C22.6751 37.3039 25.0511 38.0932 27.4925 38.0932H33.0507L34.0273 32.5375Z" fill="#FFD1C8"/>
<path d="M18.9498 13.6912H27.3384C27.8593 13.6912 28.3624 13.8817 28.7525 14.227L33.5397 18.4635C34.2123 19.0587 34.1851 20.1167 33.4828 20.6767C32.9831 21.0751 32.2811 21.0982 31.7563 20.7334L27.7922 17.9779L18.9498 18.0961V13.6912H18.9498Z" fill="#FFD1C8"/>
<path d="M27.4542 26.2981C25.0418 26.2981 23.0862 24.3425 23.0862 21.9301C23.0862 19.5177 25.0418 17.562 27.4542 17.562C29.8666 17.562 31.8223 19.5177 31.8223 21.9301C31.8223 24.3425 29.8666 26.2981 27.4542 26.2981Z" fill="#F5EE45"/>
<path d="M18.9498 18.8398L19.5223 19.247C20.8761 20.21 22.4963 20.7274 24.1577 20.7274H26.4323C27.1671 20.7274 27.7627 20.1317 27.7627 19.397C27.7627 18.662 27.1669 18.0661 26.4319 18.0663C26.1131 18.0664 25.7746 18.0665 25.462 18.0666C24.7977 18.0667 24.2594 17.5282 24.2594 16.8639V16.012L18.9499 16.0365L18.9498 18.8398Z" fill="#FFD1C8"/>
<path d="M18.9502 13.085H13.0856V20.9919H18.9502V13.085Z" fill="#F4E7B8"/>
<path d="M38.915 31.0081H33.0505V38.915H38.915V31.0081Z" fill="#B8EDFE"/>
<path d="M16.8896 30.6525C17.5383 30.1353 18.4393 30.095 19.1314 30.5525L23.0449 33.1386C23.2151 32.3839 23.8462 31.7842 24.6462 31.687L26.9687 31.405L28.2996 30.8469C29.6663 30.2738 31.203 30.2883 32.547 30.8618C32.6104 30.6432 32.8118 30.4832 33.0509 30.4832H38.9154C39.2053 30.4832 39.4404 30.7183 39.4404 31.0082V38.915C39.4404 39.2049 39.2053 39.44 38.9154 39.44H33.0509C32.761 39.44 32.5259 39.2049 32.5259 38.915V38.6182H27.4926C24.9551 38.6182 22.438 37.782 20.4049 36.2635L16.9374 33.6736C16.4599 33.3171 16.1806 32.7708 16.1712 32.1749C16.1617 31.5789 16.4236 31.0241 16.8896 30.6525ZM33.5759 38.39H38.3904V31.5331H33.5759V38.39ZM17.5657 32.8324L21.0332 35.4223C22.8861 36.806 25.1801 37.5682 27.4926 37.5682H32.5259V32.0184C31.3557 31.3747 29.9443 31.2958 28.7056 31.8152L27.3075 32.4015C27.2628 32.4202 27.2158 32.4327 27.1677 32.4385L24.7728 32.7293C24.3464 32.7811 24.029 33.1577 24.0501 33.5867C24.061 33.808 24.1578 34.0112 24.3228 34.1591C24.4877 34.3069 24.7007 34.3812 24.9216 34.3676L28.7277 34.1376C29.0165 34.1204 29.266 34.3405 29.2835 34.6299C29.301 34.9194 29.0805 35.1682 28.7911 35.1856C28.7911 35.1856 24.9077 35.4192 24.8692 35.4192C24.4078 35.4192 23.9687 35.2517 23.6221 34.941C23.4971 34.8291 23.3898 34.7029 23.3006 34.5661L18.5525 31.4285C18.241 31.2228 17.8359 31.2409 17.5441 31.4734C17.3345 31.6406 17.2167 31.8902 17.221 32.1582C17.2253 32.4263 17.3509 32.672 17.5657 32.8324Z" fill="#363636"/>
<path d="M13.0858 12.5601H18.9503C19.2402 12.5601 19.4753 12.7952 19.4753 13.0851V13.1661H21.5216C21.8115 13.1661 22.0466 13.4012 22.0466 13.6911C22.0466 13.981 21.8115 14.2161 21.5216 14.2161H19.4753V18.5689L19.8271 18.8191C21.0993 19.724 22.597 20.2023 24.1582 20.2023H26.4328C26.8769 20.2023 27.2382 19.841 27.2382 19.3969C27.2382 19.1816 27.1543 18.9793 27.0022 18.8271C26.8501 18.675 26.6479 18.5913 26.4327 18.5913H26.4325L25.4625 18.5915H25.4622C25.0008 18.5915 24.5669 18.4118 24.2407 18.0855C23.9145 17.7591 23.7348 17.3253 23.7348 16.8637V16.0119C23.7348 15.722 23.9699 15.4869 24.2598 15.4869C24.5497 15.4869 24.7848 15.722 24.7848 16.0119V16.8638C24.7848 17.0449 24.8553 17.2151 24.9832 17.3431C25.077 17.4369 25.1936 17.4995 25.3205 17.5264C25.9881 17.202 26.7055 17.0371 27.4544 17.0371C29.5857 17.0371 31.4028 18.407 32.0722 20.3124C32.4024 20.5319 32.8451 20.5141 33.156 20.2662C33.3692 20.0962 33.4955 19.8424 33.5025 19.5699C33.5095 19.2973 33.3964 19.0373 33.1922 18.8566L28.405 14.6202C28.1107 14.3597 27.732 14.2162 27.3388 14.2162H26.2465C25.9566 14.2162 25.7215 13.9811 25.7215 13.6912C25.7215 13.4013 25.9566 13.1662 26.2465 13.1662H27.3388C27.9886 13.1662 28.6144 13.4033 29.1008 13.8339L33.888 18.0703C34.325 18.4571 34.5671 19.0135 34.5521 19.5968C34.5371 20.1802 34.2668 20.7234 33.8106 21.0872C33.4548 21.3709 33.0181 21.5141 32.5807 21.514C32.4963 21.514 32.4119 21.5076 32.328 21.4969C32.3406 21.6397 32.3474 21.7842 32.3474 21.9302C32.3474 24.6282 30.1524 26.8232 27.4544 26.8232C24.7563 26.8232 22.5613 24.6281 22.5613 21.9302C22.5613 21.6561 22.5845 21.3836 22.6295 21.1154C21.5076 20.9122 20.4392 20.4853 19.4752 19.8503V20.992C19.4752 21.2819 19.2401 21.517 18.9502 21.517H13.0858C12.7959 21.517 12.5608 21.2819 12.5608 20.992V13.0851C12.5608 12.7952 12.7959 12.5601 13.0858 12.5601ZM23.6114 21.9302C23.6114 24.0492 25.3354 25.7732 27.4545 25.7732C29.5735 25.7732 31.2975 24.0492 31.2975 21.9302C31.2975 19.9139 29.7363 18.2565 27.7596 18.1003C28.1004 18.449 28.2882 18.9084 28.2882 19.3969C28.2882 20.42 27.4559 21.2523 26.4328 21.2523H24.1582C23.996 21.2523 23.8346 21.2477 23.6737 21.2387C23.6326 21.4658 23.6114 21.6972 23.6114 21.9302ZM13.6108 20.467H18.4253V13.6101H13.6108V20.467Z" fill="#363636"/>
<path d="M23.8842 14.216C23.5942 14.216 23.3592 13.981 23.3592 13.691C23.3592 13.4011 23.5942 13.166 23.8842 13.166C24.1741 13.166 24.4092 13.4011 24.4092 13.691C24.4092 13.981 24.1741 14.216 23.8842 14.216Z" fill="#363636"/>
<circle cx="46" cy="46" r="7.7" fill="#F0F0F0" stroke="white" stroke-width="0.6"/>
<path d="M48.875 42.875H43.125C42.9867 42.875 42.875 42.9867 42.875 43.125V48.875C42.875 49.0133 42.9867 49.125 43.125 49.125H48.875C49.0133 49.125 49.125 49.0133 49.125 48.875V43.125C49.125 42.9867 49.0133 42.875 48.875 42.875ZM48.5625 46.5H46.125V45.5H48.5625V46.5ZM48.5625 48.5625H43.4375V43.4375H48.5625V45H45.875C45.7367 45 45.625 45.1117 45.625 45.25V46.75C45.625 46.8883 45.7367 47 45.875 47H48.5625V48.5625ZM46.5312 46C46.5312 46.0829 46.5642 46.1624 46.6228 46.221C46.6814 46.2796 46.7609 46.3125 46.8438 46.3125C46.9266 46.3125 47.0061 46.2796 47.0647 46.221C47.1233 46.1624 47.1562 46.0829 47.1562 46C47.1562 45.9171 47.1233 45.8376 47.0647 45.779C47.0061 45.7204 46.9266 45.6875 46.8438 45.6875C46.7609 45.6875 46.6814 45.7204 46.6228 45.779C46.5642 45.8376 46.5312 45.9171 46.5312 46Z" fill="#626262"/>
</svg>
