<svg width="52" height="52" viewBox="0 0 52 52" fill="none" xmlns="http://www.w3.org/2000/svg">
<circle cx="26" cy="26" r="26" fill="#E1F7FF"/>
<path d="M34.0273 32.5375C32.6237 31.0117 30.4143 30.5293 28.5025 31.331L27.1043 31.9173L24.7094 32.2081C24.0076 32.2933 23.4909 32.9063 23.5257 33.6124C23.5625 34.3618 24.2043 34.9368 24.9532 34.8916L28.7594 34.6615L23.7032 34.2028L18.8419 30.9905C18.3418 30.6599 17.6856 30.6892 17.2168 31.063C16.5081 31.628 16.5252 32.7106 17.2514 33.253L20.719 35.8429C22.6751 37.3039 25.0511 38.0932 27.4925 38.0932H33.0507L34.0273 32.5375Z" fill="#FFD1C8"/>
<path d="M18.9498 13.6912H27.3384C27.8593 13.6912 28.3624 13.8817 28.7525 14.227L33.5397 18.4635C34.2123 19.0587 34.1851 20.1167 33.4828 20.6767C32.9831 21.0751 32.2811 21.0982 31.7563 20.7334L27.7922 17.9779L18.9498 18.0961V13.6912H18.9498Z" fill="#FFD1C8"/>
<path d="M27.4523 26.2981C25.0398 26.2981 23.0842 24.3425 23.0842 21.9301C23.0842 19.5177 25.0398 17.562 27.4523 17.562C29.8647 17.562 31.8203 19.5177 31.8203 21.9301C31.8203 24.3425 29.8647 26.2981 27.4523 26.2981Z" fill="#F5EE45"/>
<path d="M18.9489 18.8398L19.5213 19.247C20.8751 20.21 22.4953 20.7274 24.1567 20.7274H26.4314C27.1661 20.7274 27.7617 20.1317 27.7617 19.397C27.7617 18.662 27.1659 18.0661 26.4309 18.0663C26.1121 18.0664 25.7736 18.0665 25.461 18.0666C24.7967 18.0667 24.2584 17.5282 24.2584 16.8639V16.012L18.9489 16.0365L18.9489 18.8398Z" fill="#FFD1C8"/>
<path d="M18.9492 13.085H13.0846V20.9919H18.9492V13.085Z" fill="#F4E7B8"/>
<path d="M38.9141 31.0081H33.0495V38.915H38.9141V31.0081Z" fill="#B8EDFE"/>
<path d="M16.8886 30.6525C17.5373 30.1353 18.4383 30.095 19.1304 30.5525L23.044 33.1386C23.2141 32.3839 23.8452 31.7842 24.6453 31.687L26.9678 31.405L28.2986 30.8469C29.6653 30.2738 31.202 30.2883 32.546 30.8618C32.6095 30.6432 32.8109 30.4832 33.0499 30.4832H38.9145C39.2044 30.4832 39.4395 30.7183 39.4395 31.0082V38.915C39.4395 39.2049 39.2044 39.44 38.9145 39.44H33.0499C32.76 39.44 32.5249 39.2049 32.5249 38.915V38.6182H27.4916C24.9541 38.6182 22.4371 37.782 20.4039 36.2635L16.9364 33.6736C16.4589 33.3171 16.1796 32.7708 16.1702 32.1749C16.1607 31.5789 16.4227 31.0241 16.8886 30.6525ZM33.5749 38.39H38.3895V31.5331H33.5749V38.39ZM17.5647 32.8324L21.0323 35.4223C22.8851 36.8061 25.1791 37.5682 27.4916 37.5682H32.5249V32.0184C31.3548 31.3747 29.9433 31.2958 28.7046 31.8152L27.3065 32.4015C27.2618 32.4202 27.2148 32.4327 27.1667 32.4385L24.7718 32.7293C24.3454 32.7811 24.028 33.1577 24.0491 33.5867C24.06 33.808 24.1569 34.0112 24.3218 34.1591C24.4868 34.3069 24.6997 34.3812 24.9206 34.3676L28.7268 34.1376C29.0156 34.1204 29.265 34.3405 29.2825 34.6299C29.3 34.9194 29.0796 35.1682 28.7901 35.1856C28.7901 35.1856 24.9067 35.4192 24.8682 35.4192C24.4069 35.4192 23.9677 35.2517 23.6211 34.941C23.4961 34.8291 23.3888 34.7029 23.2996 34.5661L18.5515 31.4285C18.24 31.2228 17.8349 31.2409 17.5432 31.4734C17.3335 31.6406 17.2158 31.8902 17.22 32.1582C17.2243 32.4263 17.3499 32.672 17.5647 32.8324V32.8324Z" fill="#363636"/>
<path d="M13.0839 12.5601H18.9484C19.2383 12.5601 19.4734 12.7952 19.4734 13.0851V13.1661H21.5197C21.8096 13.1661 22.0447 13.4012 22.0447 13.6911C22.0447 13.981 21.8096 14.2161 21.5197 14.2161H19.4734V18.5689L19.8251 18.8191C21.0974 19.724 22.5951 20.2023 24.1562 20.2023H26.4308C26.8749 20.2023 27.2362 19.841 27.2362 19.3969C27.2362 19.1816 27.1524 18.9793 27.0002 18.8271C26.8482 18.675 26.6459 18.5913 26.4308 18.5913H26.4305L25.4605 18.5915H25.4602C24.9988 18.5915 24.565 18.4118 24.2387 18.0855C23.9125 17.7591 23.7329 17.3253 23.7329 16.8637V16.0119C23.7329 15.722 23.9679 15.4869 24.2579 15.4869C24.5478 15.4869 24.7829 15.722 24.7829 16.0119V16.8638C24.7829 17.0449 24.8534 17.2151 24.9813 17.3431C25.0751 17.4369 25.1917 17.4995 25.3185 17.5264C25.9862 17.202 26.7036 17.0371 27.4525 17.0371C29.5838 17.0371 31.4009 18.407 32.0703 20.3124C32.4004 20.5319 32.8432 20.5141 33.154 20.2662C33.3673 20.0962 33.4936 19.8424 33.5005 19.5699C33.5076 19.2973 33.3944 19.0373 33.1903 18.8566L28.403 14.6202C28.1087 14.3597 27.73 14.2162 27.3369 14.2162H26.2445C25.9546 14.2162 25.7195 13.9811 25.7195 13.6912C25.7195 13.4013 25.9546 13.1662 26.2445 13.1662H27.3369C27.9866 13.1662 28.6124 13.4033 29.0989 13.8339L33.886 18.0703C34.3231 18.4571 34.5652 19.0135 34.5501 19.5968C34.5352 20.1802 34.2648 20.7234 33.8086 21.0872C33.4528 21.3709 33.0162 21.5141 32.5787 21.514C32.4943 21.514 32.41 21.5076 32.326 21.4969C32.3386 21.6397 32.3454 21.7842 32.3454 21.9302C32.3454 24.6282 30.1504 26.8232 27.4524 26.8232C24.7543 26.8232 22.5594 24.6281 22.5594 21.9302C22.5594 21.6561 22.5825 21.3836 22.6275 21.1154C21.5056 20.9122 20.4372 20.4853 19.4733 19.8503V20.992C19.4733 21.2819 19.2382 21.517 18.9483 21.517H13.0839C12.7939 21.517 12.5589 21.2819 12.5589 20.992V13.0851C12.5589 12.7952 12.7939 12.5601 13.0839 12.5601ZM23.6095 21.9302C23.6095 24.0492 25.3335 25.7732 27.4525 25.7732C29.5715 25.7732 31.2955 24.0492 31.2955 21.9302C31.2955 19.9139 29.7344 18.2565 27.7576 18.1003C28.0984 18.449 28.2862 18.9084 28.2862 19.3969C28.2862 20.42 27.4539 21.2523 26.4308 21.2523H24.1562C23.9941 21.2523 23.8326 21.2477 23.6718 21.2387C23.6306 21.4658 23.6095 21.6972 23.6095 21.9302ZM13.6089 20.467H18.4234V13.6101H13.6089V20.467Z" fill="#363636"/>
<path d="M23.8832 14.216C23.5933 14.216 23.3582 13.981 23.3582 13.691C23.3582 13.4011 23.5933 13.166 23.8832 13.166C24.1732 13.166 24.4082 13.4011 24.4082 13.691C24.4082 13.981 24.1732 14.216 23.8832 14.216Z" fill="#363636"/>
</svg>
