<svg width="52" height="52" viewBox="0 0 52 52" fill="none" xmlns="http://www.w3.org/2000/svg">
<circle cx="26" cy="26" r="26" fill="#E1F7FF"/>
<path d="M24.9453 15.711V22.9326C24.9492 26.7696 26.5827 30.4243 29.4388 32.9863C31.022 34.4033 33.3983 34.4656 35.0535 33.1335L35.2041 33.0128C38.3835 30.453 40.2311 26.59 40.2285 22.5082V15.711C35.2695 14.0501 29.9043 14.0501 24.9453 15.711Z" fill="#FBC050"/>
<path d="M28.7656 25.8369C31.1695 27.0454 34.0034 27.0454 36.4072 25.8369L35.9391 27.2481C35.4617 28.6954 34.1105 29.6739 32.5864 29.6759C31.0624 29.6739 29.7111 28.6954 29.2337 27.2481L28.7656 25.8369Z" fill="#CB3A31"/>
<path d="M27.4917 21.9601C27.2207 21.9596 27.0015 21.7395 27.002 21.4685C27.0021 21.3724 27.0305 21.2786 27.0835 21.1986C27.9599 19.8763 29.5742 19.2494 31.1133 19.6338L31.4322 19.7138C31.6946 19.7815 31.8524 20.0491 31.7847 20.3115C31.7177 20.5712 31.4544 20.729 31.1938 20.6657L30.8743 20.5857C29.7387 20.3035 28.5482 20.7658 27.9009 21.7407C27.8099 21.8778 27.6563 21.9602 27.4917 21.9601Z" fill="#CB3A31"/>
<path d="M38.3183 22.1388C38.1537 22.1388 38 22.0562 37.9091 21.919C37.262 20.9444 36.072 20.482 34.9367 20.7639L34.6163 20.8439C34.3514 20.9014 34.0902 20.7333 34.0327 20.4684C33.9778 20.2155 34.1289 19.9634 34.3778 19.8925L34.6977 19.8121C36.2364 19.4287 37.8499 20.0554 38.7266 21.3768C38.8764 21.6026 38.8149 21.9071 38.5891 22.0569C38.5088 22.1102 38.4147 22.1387 38.3183 22.1388Z" fill="#CB3A31"/>
<path d="M24.9449 19.7612C20.5832 20.7936 16.0199 20.5867 11.7695 19.1641V26.3675C11.7676 30.2057 13.4021 33.8626 16.263 36.4212C17.8462 37.8382 20.2225 37.9005 21.8777 36.5684L22.0284 36.4477C24.2648 34.6466 25.8662 32.177 26.5984 29.4003C25.5145 27.4173 24.946 25.1938 24.9449 22.9338V19.7612Z" fill="#0594C2"/>
<path d="M16.0712 33.2086C16.4108 33.7223 17.0807 33.901 17.631 33.6247C18.6278 33.1238 19.8029 33.1238 20.7997 33.6247C21.35 33.901 22.0199 33.7223 22.3595 33.2086C22.7345 32.6459 22.5832 31.8859 22.0215 31.5095C20.3239 30.3712 18.1068 30.3712 16.4092 31.5095C15.8475 31.8859 15.6962 32.6459 16.0712 33.2086Z" fill="#31C9F9"/>
<path d="M23.2961 26.2334L22.3378 28.4694C22.1118 28.999 22.358 29.6116 22.8876 29.8376C23.0168 29.8926 23.1557 29.9211 23.2961 29.9212C23.872 29.9212 24.3387 29.4543 24.3387 28.8784C24.3387 28.7373 24.31 28.5976 24.2544 28.4679L23.2961 26.2334Z" fill="#B8EDFE"/>
<path d="M30.8747 20.5857L31.1941 20.6657C31.4574 20.7297 31.7228 20.5681 31.7868 20.3047C31.8502 20.0441 31.6924 19.7808 31.4326 19.7138L31.1137 19.6338C29.5746 19.2494 27.9602 19.8763 27.0838 21.1986C26.9407 21.4287 27.0112 21.7312 27.2413 21.8743C27.462 22.0116 27.7514 21.953 27.9013 21.7407C28.5486 20.7659 29.7391 20.3035 30.8747 20.5857Z" fill="#363636"/>
<path d="M36.1865 25.3981C33.9199 26.531 31.2521 26.531 28.9855 25.3981C28.7436 25.2758 28.4484 25.3728 28.3262 25.6146C28.2672 25.7313 28.2573 25.8667 28.2985 25.9908L28.7671 27.402C29.4597 29.5108 31.7307 30.6588 33.8396 29.9662C35.0533 29.5675 36.0052 28.6156 36.4038 27.402L36.8719 25.9908C36.9574 25.7336 36.8182 25.4559 36.5611 25.3704C36.437 25.3291 36.3017 25.3391 36.1849 25.3981H36.1865ZM35.4731 27.0933C34.9504 28.6878 33.2342 29.5567 31.6397 29.0341C30.7207 28.7329 30 28.0122 29.6989 27.0933L29.5728 26.7131C31.5227 27.4 33.6488 27.4 35.5987 26.7131L35.4731 27.0933Z" fill="#363636"/>
<path d="M34.6154 20.8436L34.9358 20.7637C36.0712 20.4817 37.2612 20.9441 37.9083 21.9187C38.0514 22.1488 38.354 22.2193 38.5841 22.0762C38.8142 21.9331 38.8847 21.6305 38.7416 21.4004C38.7365 21.3923 38.7312 21.3844 38.7257 21.3765C37.8486 20.0556 36.2352 19.4296 34.6968 19.8132L34.3769 19.8937C34.1187 19.976 33.9762 20.2521 34.0585 20.5102C34.1337 20.7458 34.3723 20.8887 34.6154 20.8436Z" fill="#363636"/>
<path d="M40.3841 15.2459C35.3222 13.5619 29.8512 13.5619 24.7893 15.2459C24.5894 15.3129 24.4546 15.5002 24.4546 15.711V19.3655C20.2948 20.2808 15.9647 20.0504 11.9255 18.6987C11.6685 18.6128 11.3905 18.7515 11.3046 19.0085C11.2879 19.0586 11.2793 19.111 11.2793 19.1638V26.3673C11.2792 30.3449 12.973 34.1342 15.9367 36.7871C17.6993 38.3636 20.3441 38.4324 22.1863 36.9495L22.3364 36.8288C24.3627 35.2056 25.8906 33.0445 26.7451 30.5929C27.4092 31.6128 28.2051 32.5407 29.112 33.3524C30.8745 34.9289 33.5192 34.9977 35.3611 33.5148L35.5113 33.3941C38.8145 30.748 40.7317 26.7406 40.7192 22.5082V15.711C40.7191 15.5 40.5841 15.3127 40.3841 15.2459ZM21.7211 36.0648L21.5739 36.1855C20.1048 37.3682 17.9952 37.3127 16.5903 36.0545C13.8349 33.5882 12.2603 30.0652 12.2606 26.3673V19.8356C16.215 21.0398 20.4094 21.2254 24.4546 20.3753V22.9346C24.4546 23.2215 24.4637 23.5084 24.4816 23.7952C24.4875 23.8904 24.5003 23.9846 24.5081 24.0798C24.5238 24.2702 24.5385 24.4611 24.5621 24.6509C24.5768 24.7663 24.5979 24.8801 24.6151 24.9944C24.6406 25.1632 24.6641 25.3325 24.6956 25.5003C24.7181 25.622 24.7481 25.7427 24.7741 25.8639C24.8084 26.0228 24.8403 26.1823 24.88 26.3398C24.9119 26.4654 24.9502 26.5896 24.985 26.7142C25.0277 26.8653 25.0685 27.0169 25.1161 27.1666C25.1563 27.2932 25.2024 27.4178 25.2461 27.5429C25.2951 27.6901 25.3467 27.8349 25.4026 27.9791C25.4517 28.1047 25.5051 28.2279 25.5572 28.3515C25.6165 28.4929 25.6744 28.6342 25.7382 28.773C25.7951 28.8972 25.8574 29.0184 25.9183 29.1415C25.9708 29.2475 26.0164 29.3554 26.0738 29.4604C25.3521 32.0642 23.8293 34.3748 21.7211 36.0648ZM39.7379 22.5082C39.7491 26.4433 37.967 30.1691 34.8965 32.6301L34.7463 32.7508C33.2778 33.9321 31.17 33.8766 29.7656 32.6198C28.6623 31.633 27.7369 30.4639 27.0296 29.1636C26.2493 27.7326 25.7434 26.1683 25.538 24.5513C25.4701 24.0142 25.4361 23.4735 25.436 22.9321V16.0673C30.0898 14.5962 35.084 14.5962 39.7379 16.0673V22.5082Z" fill="#363636"/>
<path d="M17.1126 24.8724L17.326 24.55C17.4758 24.324 17.4141 24.0193 17.1881 23.8694C16.9621 23.7196 16.6574 23.7813 16.5076 24.0073L16.2946 24.3297C15.7262 25.19 14.764 25.7075 13.7329 25.7075C13.4619 25.7075 13.2422 25.9272 13.2422 26.1981C13.2422 26.4691 13.4619 26.6888 13.7329 26.6888C15.093 26.6892 16.3624 26.007 17.1126 24.8724Z" fill="#363636"/>
<path d="M22.2949 31.1033C20.4335 29.8497 17.998 29.8497 16.1366 31.1033C15.3494 31.6323 15.1401 32.6993 15.6691 33.4865C15.9869 33.9596 16.5186 34.244 17.0885 34.246C17.3538 34.2459 17.6155 34.1837 17.8525 34.0645C18.7112 33.6361 19.7213 33.6361 20.5801 34.0645C21.4251 34.4917 22.4564 34.1531 22.8836 33.3081C23.2765 32.5309 23.0244 31.5827 22.2974 31.1033H22.2949ZM21.9515 32.9389C21.748 33.2452 21.3482 33.3519 21.0192 33.1877C19.883 32.6202 18.5461 32.6202 17.4099 33.1877C17.0809 33.3525 16.6807 33.2458 16.4776 32.9389C16.2522 32.6012 16.3429 32.1448 16.6803 31.9188C18.2114 30.8878 20.2147 30.8878 21.7459 31.9188C22.0843 32.1438 22.1763 32.6004 21.9515 32.9389Z" fill="#363636"/>
<path d="M24.7049 28.2759L23.7466 26.0404L23.7417 26.0321C23.6732 25.838 23.4902 25.708 23.2844 25.7073C22.2534 25.7074 21.2912 25.1899 20.7231 24.3295L20.5092 24.0071C20.3594 23.7812 20.0548 23.7196 19.8289 23.8695C19.603 24.0193 19.5414 24.3239 19.6913 24.5498L19.9052 24.8721C20.5221 25.8018 21.4957 26.4353 22.5955 26.6228L21.8865 28.2759C21.5527 29.0541 21.913 29.9557 22.6913 30.2895C23.4696 30.6232 24.3711 30.2629 24.7049 29.4846C24.8704 29.0987 24.8704 28.6618 24.7049 28.2759ZM23.7564 29.1851C23.5744 29.4394 23.2207 29.4981 22.9664 29.3161C22.9159 29.2799 22.8716 29.2357 22.8354 29.1851C22.731 29.0312 22.7125 28.8346 22.7864 28.664L23.2937 27.48L23.8011 28.664C23.8765 28.8339 23.8596 29.0305 23.7564 29.1851Z" fill="#363636"/>
</svg>
