<svg width="52" height="52" viewBox="0 0 52 52" fill="none" xmlns="http://www.w3.org/2000/svg">
<circle cx="26" cy="26" r="26" fill="#E1F7FF"/>
<path d="M37.3173 33.4205H14.6809C13.7051 33.4205 12.9141 32.6295 12.9141 31.6537V31.3059C12.9141 30.3301 13.7051 29.5391 14.6809 29.5391H37.3173C38.293 29.5391 39.0841 30.3301 39.0841 31.3059V31.6537C39.0841 32.6295 38.2931 33.4205 37.3173 33.4205Z" fill="#CB3A31"/>
<path d="M37.3173 26.4823H14.6809C13.7051 26.4823 12.9141 25.6913 12.9141 24.7155V24.3676C12.9141 23.3919 13.7051 22.6008 14.6809 22.6008H37.3173C38.293 22.6008 39.0841 23.3918 39.0841 24.3676V24.7155C39.0841 25.6913 38.2931 26.4823 37.3173 26.4823Z" fill="#A75D30"/>
<path d="M25.9999 12.9548C17.1757 13.0826 14.2109 17.8693 13.2321 20.6505C12.8968 21.6035 13.6118 22.6009 14.6221 22.6009H25.9999H37.3777C38.3954 22.6009 39.1013 21.5935 38.7619 20.6339C37.7772 17.8503 34.8067 13.0823 25.9999 12.9548Z" fill="#FAB371"/>
<path d="M37.3181 33.4204H25.9999H14.6817C14.6817 33.4204 13.9011 37.1898 18.3433 38.6728C19.1043 38.9268 19.8987 39.0451 20.6954 39.0451H25.9999H31.3044C32.1011 39.0451 32.8955 38.9268 33.6565 38.6728C38.0988 37.1898 37.3181 33.4204 37.3181 33.4204Z" fill="#FAB371"/>
<path d="M37.3594 30.2428C37.3594 31.1248 36.3345 31.6031 35.653 31.043C35.3729 30.8127 35.0421 30.6303 34.5178 30.6303C33.0972 30.6303 33.0972 31.7557 31.6765 31.7557C30.2558 31.7557 30.2558 30.6303 28.8352 30.6303C27.4146 30.6303 27.4146 31.7557 25.9939 31.7557C24.5733 31.7557 24.5733 30.6303 23.1528 30.6303C21.7321 30.6303 21.7321 31.7557 20.3114 31.7557C18.8908 31.7557 18.8908 30.6303 17.4702 30.6303C16.9461 30.6303 16.6154 30.8127 16.3354 31.0428C15.6538 31.6028 14.6289 31.1247 14.6289 30.2426V28.155H37.3595V30.2428H37.3594Z" fill="#AFF939"/>
<path d="M14.6406 26.4824V28.1707H17.0775C17.5844 28.1707 17.9954 28.5816 17.9954 29.0885V33.9508C17.9954 34.5989 18.5207 35.1243 19.1689 35.1243C19.817 35.1243 20.3424 34.5989 20.3424 33.9508V29.0885C20.3424 28.5816 20.7534 28.1707 21.2603 28.1707H37.3598V26.4824H14.6406Z" fill="#FDE35B"/>
<path d="M22.3574 17.0141C22.4977 17.0141 22.6337 16.939 22.7051 16.8069L23.0476 16.1731C23.1512 15.9813 23.0798 15.7418 22.888 15.6381C22.696 15.5344 22.4566 15.606 22.3529 15.7977L22.0105 16.4314C21.9068 16.6232 21.9782 16.8628 22.1701 16.9665C22.2297 16.9987 22.294 17.0141 22.3574 17.0141Z" fill="#363636"/>
<path d="M26.3892 16.6625V15.9422C26.3892 15.7241 26.2125 15.5474 25.9944 15.5474C25.7764 15.5474 25.5996 15.7241 25.5996 15.9422V16.6625C25.5996 16.8805 25.7764 17.0573 25.9944 17.0573C26.2125 17.0573 26.3892 16.8805 26.3892 16.6625Z" fill="#363636"/>
<path d="M29.6414 17.0088C29.7086 17.0088 29.7768 16.9916 29.8391 16.9555C30.0277 16.846 30.092 16.6045 29.9825 16.4158L29.6212 15.7927C29.5118 15.6041 29.2702 15.5399 29.0816 15.6493C28.8929 15.7587 28.8287 16.0003 28.9381 16.1889L29.2995 16.812C29.3727 16.9382 29.5052 17.0088 29.6414 17.0088Z" fill="#363636"/>
<path d="M39.4791 24.7155V24.3677C39.4791 23.6303 39.1077 22.9782 38.5423 22.5879C38.6754 22.4805 38.7954 22.3539 38.898 22.2087C39.2482 21.7134 39.3362 21.0755 39.1335 20.5023C38.6438 19.118 37.626 17.1245 35.5585 15.4887C33.1747 13.6027 29.9604 12.6173 26.005 12.5601C26.0012 12.56 25.9974 12.56 25.9936 12.5601C24.2059 12.586 22.5498 12.8047 21.0714 13.2102C20.8611 13.2678 20.7374 13.4851 20.7951 13.6953C20.8527 13.9056 21.0699 14.0294 21.2802 13.9717C22.6928 13.5842 24.2804 13.375 25.9993 13.3497C34.5407 13.4756 37.4283 18.0497 38.389 20.7656C38.5081 21.1024 38.4586 21.4622 38.2532 21.7528C38.0495 22.0409 37.7301 22.2061 37.3769 22.2061H14.6215C14.267 22.2061 13.9459 22.04 13.7407 21.7501C13.5379 21.4639 13.4881 21.1108 13.6039 20.7816C14.3043 18.7914 15.9126 16.0946 19.5974 14.5493C19.7985 14.465 19.8932 14.2336 19.8088 14.0326C19.7245 13.8314 19.493 13.7369 19.2921 13.8211C17.4979 14.5736 15.9966 15.6607 14.8299 17.0523C13.9715 18.0762 13.3084 19.2427 12.8591 20.5195C12.6571 21.0935 12.7435 21.7084 13.0963 22.2065C13.199 22.3516 13.3212 22.4789 13.4573 22.5873C12.8913 22.9775 12.5195 23.6299 12.5195 24.3677V24.7155C12.5195 25.7581 13.2614 26.6305 14.2449 26.8329L14.237 29.1906C13.2575 29.396 12.5195 30.2662 12.5195 31.3058V31.6537C12.5195 32.6956 13.2606 33.5676 14.2433 33.7706C14.2168 34.1861 14.2304 34.8604 14.47 35.6107C15.1157 37.6326 16.8644 38.5956 18.2177 39.0473C18.9981 39.3078 19.8315 39.4399 20.6948 39.4399H31.3039C32.1672 39.4399 33.0005 39.3078 33.7809 39.0473C35.1342 38.5956 36.883 37.6326 37.5286 35.6107C37.7682 34.8605 37.7818 34.1861 37.7553 33.7706C38.738 33.5677 39.4791 32.6956 39.4791 31.6537V31.3058C39.4791 30.2634 38.7371 29.3917 37.7537 29.1894V26.8329C38.7372 26.6306 39.4791 25.7581 39.4791 24.7155ZM13.3092 31.6537V31.3058C13.3092 30.7059 13.6967 30.1958 14.2343 30.0099L14.2335 30.2426C14.2335 30.803 14.5478 31.2997 15.0537 31.5388C15.5625 31.7793 16.1495 31.7061 16.5854 31.3478C16.7894 31.1802 17.0376 31.0251 17.4696 31.0251C17.5151 31.0251 17.5579 31.027 17.5996 31.0296V33.0257H14.6811C13.9246 33.0257 13.3092 32.4102 13.3092 31.6537ZM29.0422 28.5654H36.9641V30.2428C36.9641 30.4985 36.8265 30.7162 36.5962 30.825C36.3628 30.9353 36.1038 30.9028 35.9032 30.7379C35.6186 30.504 35.2038 30.2355 34.5173 30.2355C33.6696 30.2355 33.2349 30.5797 32.8515 30.8835C32.5148 31.1502 32.2489 31.3608 31.676 31.3608C31.103 31.3608 30.8371 31.1502 30.5005 30.8835C30.117 30.5798 29.6824 30.2355 28.8346 30.2355C27.9869 30.2355 27.5333 30.5948 27.1688 30.8835C26.8322 31.1502 26.5662 31.3608 25.9934 31.3608C25.4205 31.3608 25.1546 31.1502 24.818 30.8835C24.4536 30.5948 23.9999 30.2355 23.1522 30.2355C22.3045 30.2355 21.8699 30.5797 21.4864 30.8835C21.2464 31.0736 21.0414 31.2345 20.7364 31.3115V29.0885C20.7364 28.8 20.971 28.5654 21.2594 28.5654H27.1908C27.4089 28.5654 27.5857 28.3886 27.5857 28.1706C27.5857 27.9525 27.4089 27.7758 27.1908 27.7758H21.2594C20.5355 27.7758 19.9467 28.3646 19.9467 29.0885V33.9507C19.9467 34.3801 19.5974 34.7295 19.168 34.7295C18.7386 34.7295 18.3892 34.3801 18.3892 33.9507V29.0885C18.3892 28.3646 17.8003 27.7758 17.0765 27.7758H15.0345V26.8771H36.9641V27.7758H29.0422C28.8241 27.7758 28.6473 27.9525 28.6473 28.1706C28.6473 28.3886 28.8241 28.5654 29.0422 28.5654ZM17.0765 28.5654C17.3649 28.5654 17.5996 28.8 17.5996 29.0885V30.2388C17.5573 30.2368 17.5143 30.2355 17.4696 30.2355C16.7833 30.2355 16.3686 30.5038 16.0841 30.7377C15.8835 30.9025 15.6245 30.9351 15.391 30.8248C15.1606 30.7159 15.0231 30.4983 15.0231 30.2426V28.5654H17.0765ZM36.7764 35.3705C36.339 36.7404 35.247 37.7255 33.5309 38.2983C32.8312 38.5319 32.082 38.6503 31.3038 38.6503H20.6948C19.9167 38.6503 19.1674 38.5319 18.4677 38.2983C15.106 37.1761 14.9652 34.6972 15.0289 33.8152H17.5997V33.9507C17.5997 34.8155 18.3032 35.5191 19.168 35.5191C20.0328 35.5191 20.7364 34.8155 20.7364 33.9507V33.8152H36.9677C36.99 34.1525 36.982 34.7269 36.7764 35.3705ZM38.6895 31.3058V31.6537C38.6895 32.4102 38.074 33.0257 37.3175 33.0257H20.7363V32.1175C21.3152 32.0251 21.6634 31.7506 21.9766 31.5024C22.3133 31.2358 22.5793 31.0251 23.1522 31.0251C23.7251 31.0251 23.991 31.2358 24.3276 31.5024C24.6921 31.7912 25.1457 32.1505 25.9934 32.1505C26.8411 32.1505 27.2757 31.8062 27.6591 31.5024C27.9958 31.2358 28.2617 31.0251 28.8346 31.0251C29.4075 31.0251 29.6734 31.2358 30.0101 31.5024C30.3936 31.8062 30.8282 32.1505 31.6759 32.1505C32.5237 32.1505 32.9583 31.8062 33.3417 31.5024C33.6784 31.2358 33.9443 31.0251 34.5172 31.0251C34.9494 31.0251 35.1977 31.1803 35.4018 31.3481C35.8377 31.7063 36.4246 31.7795 36.9335 31.539C37.4394 31.3 37.7537 30.8033 37.7537 30.2428V30.0055C38.297 30.1881 38.6895 30.7018 38.6895 31.3058ZM37.3175 26.0875H14.6811C13.9246 26.0875 13.3091 25.472 13.3091 24.7155V24.3677C13.3091 23.6112 13.9246 22.9957 14.6811 22.9957H37.3175C38.074 22.9957 38.6895 23.6112 38.6895 24.3677V24.7155C38.6895 25.472 38.074 26.0875 37.3175 26.0875Z" fill="#363636"/>
</svg>
