<svg width="52" height="52" viewBox="0 0 52 52" fill="none" xmlns="http://www.w3.org/2000/svg">
<circle cx="26" cy="26" r="26" fill="#E1F7FF"/>
<path d="M15.4707 17.7092H18.7871V16.7419C18.7871 16.2099 18.3518 15.7747 17.8198 15.7747H16.438C15.906 15.7747 15.4707 16.2099 15.4707 16.7419V17.7092Z" fill="#F3BDB9"/>
<path d="M34.1802 15.7747C33.6482 15.7747 33.2129 16.2099 33.2129 16.7419V17.7092H36.5293V16.7419C36.5293 16.2099 36.094 15.7747 35.562 15.7747H34.1802Z" fill="#F3BDB9"/>
<path d="M33.2123 17.7092H31.048H20.8366H18.7867H15.4703H13.8121C13.0368 17.7092 12.4023 18.3436 12.4023 19.119V36.1976C12.4023 36.973 13.0368 37.6074 13.8121 37.6074H38.1869C38.9623 37.6074 39.5967 36.973 39.5967 36.1976V19.119C39.5967 18.3436 38.9623 17.7092 38.1869 17.7092H36.5287H33.2123ZM23.9066 22.0773H28.0924V25.5654H31.5805V29.7512H28.0924V33.2393H23.9066V29.7512H20.4185V25.5654H23.9066V22.0773Z" fill="#FCFCFC"/>
<path d="M28.0918 25.5653V22.0771H23.9061V25.5653H20.418V29.751H23.9061V33.2392H28.0918V29.751H31.58V25.5653H28.0918Z" fill="#CB3A31"/>
<path d="M38.1869 17.1565H37.0814V16.7419C37.0814 15.9038 36.3995 15.2219 35.5614 15.2219H34.1796C33.3414 15.2219 32.6595 15.9037 32.6595 16.7419V17.1565H31.6007V15.6053C31.6007 14.6319 30.8088 13.8401 29.8354 13.8401H22.0491C21.0758 13.8401 20.2839 14.632 20.2839 15.6053V17.1565H19.3394V16.7419C19.3394 15.9038 18.6575 15.2219 17.8194 15.2219H16.4376C15.5995 15.2219 14.9176 15.9037 14.9176 16.7419V17.1565H13.8121C12.73 17.1565 11.8496 18.0369 11.8496 19.119V36.1976C11.8496 37.2797 12.73 38.1601 13.8121 38.1601H38.1869C39.269 38.1601 40.1494 37.2797 40.1494 36.1976V19.119C40.1494 18.0369 39.269 17.1565 38.1869 17.1565ZM33.765 16.7419C33.765 16.5133 33.9509 16.3274 34.1796 16.3274H35.5614C35.79 16.3274 35.9759 16.5133 35.9759 16.7419V17.1565H33.765V16.7419ZM21.3893 15.6053C21.3893 15.2415 21.6853 14.9455 22.0491 14.9455H29.8354C30.1992 14.9455 30.4952 15.2415 30.4952 15.6053V17.1565H21.3893V15.6053ZM16.023 16.7419C16.023 16.5133 16.209 16.3274 16.4376 16.3274H17.8194C18.048 16.3274 18.234 16.5133 18.234 16.7419V17.1565H16.023V16.7419ZM39.044 36.1976C39.044 36.6702 38.6595 37.0547 38.1869 37.0547H13.8121C13.3395 37.0547 12.9551 36.6702 12.9551 36.1976V19.119C12.9551 18.6464 13.3395 18.2619 13.8121 18.2619H38.1869C38.6595 18.2619 39.044 18.6464 39.044 19.119V36.1976Z" fill="#363636"/>
<path d="M32.1326 29.751V25.5653C32.1326 25.26 31.8851 25.0125 31.5799 25.0125H28.6446V22.0771C28.6446 21.7719 28.3971 21.5244 28.0918 21.5244H23.9061C23.6008 21.5244 23.3533 21.7719 23.3533 22.0771V25.0125H20.418C20.1127 25.0125 19.8652 25.26 19.8652 25.5653V29.751C19.8652 30.0563 20.1127 30.3037 20.418 30.3037H23.3533V33.2391C23.3533 33.5444 23.6008 33.7919 23.9061 33.7919H28.0918C28.3971 33.7919 28.6446 33.5444 28.6446 33.2391V30.3037H31.5799C31.8851 30.3037 32.1326 30.0563 32.1326 29.751ZM31.0272 29.1983H28.0918C27.7866 29.1983 27.5391 29.4457 27.5391 29.751V32.6864H24.4588V29.751C24.4588 29.4457 24.2113 29.1983 23.9061 29.1983H20.9707V26.118H23.9061C24.2113 26.118 24.4588 25.8705 24.4588 25.5653V22.6299H27.5391V25.5653C27.5391 25.8705 27.7866 26.118 28.0918 26.118H31.0272V29.1983Z" fill="#363636"/>
<path d="M20.1957 19.6438C20.1957 19.3385 19.9482 19.0911 19.643 19.0911H19.625C19.3198 19.0911 19.0723 19.3385 19.0723 19.6438C19.0723 19.9491 19.3198 20.1965 19.625 20.1965H19.643C19.9482 20.1965 20.1957 19.949 20.1957 19.6438Z" fill="#363636"/>
<path d="M17.9813 19.0911H14.3359C14.0307 19.0911 13.7832 19.3385 13.7832 19.6438C13.7832 19.9491 14.0307 20.1965 14.3359 20.1965H17.9813C18.2865 20.1965 18.534 19.9491 18.534 19.6438C18.534 19.3385 18.2866 19.0911 17.9813 19.0911Z" fill="#363636"/>
<path d="M37.6629 35.1201H34.0176C33.7124 35.1201 33.4648 35.3676 33.4648 35.6728C33.4648 35.9781 33.7124 36.2256 34.0176 36.2256H37.6629C37.9682 36.2256 38.2157 35.9781 38.2157 35.6728C38.2157 35.3676 37.9682 35.1201 37.6629 35.1201Z" fill="#363636"/>
<path d="M32.3734 35.1201H32.3555C32.0502 35.1201 31.8027 35.3676 31.8027 35.6728C31.8027 35.9781 32.0502 36.2256 32.3555 36.2256H32.3734C32.6786 36.2256 32.9261 35.9781 32.9261 35.6728C32.9261 35.3676 32.6786 35.1201 32.3734 35.1201Z" fill="#363636"/>
</svg>
