<svg width="52" height="52" viewBox="0 0 52 52" fill="none" xmlns="http://www.w3.org/2000/svg">
<circle cx="26" cy="26" r="26" fill="#E1F7FF"/>
<path d="M13.0762 13.0879H29.5701V36.6146H13.0762V13.0879Z" fill="#F4E7B8"/>
<path d="M25.665 38.9124C24.7908 38.9124 24.082 38.2037 24.082 37.3294V21.3657C24.082 20.4915 24.7908 19.7827 25.665 19.7827H37.3423C38.2166 19.7827 38.9253 20.4915 38.9253 21.3657V37.3294C38.9253 38.2037 38.2166 38.9124 37.3423 38.9124H25.665Z" fill="white"/>
<path d="M27.2051 21.8687H35.6986V24.028H27.2051V21.8687Z" fill="#31C9F9"/>
<path d="M27.2639 28.3684H27.2549C26.6611 28.3684 26.1797 27.887 26.1797 27.2932V27.2842C26.1797 26.6904 26.6611 26.209 27.2549 26.209H27.2639C27.8577 26.209 28.3391 26.6904 28.3391 27.2842V27.2932C28.3391 27.887 27.8577 28.3684 27.2639 28.3684Z" fill="#F3BDB9"/>
<path d="M31.4846 28.3684H31.4755C30.8817 28.3684 30.4004 27.887 30.4004 27.2932V27.2842C30.4004 26.6904 30.8818 26.209 31.4755 26.209H31.4846C32.0784 26.209 32.5598 26.6904 32.5598 27.2842V27.2932C32.5597 27.887 32.0783 28.3684 31.4846 28.3684Z" fill="#F3BDB9"/>
<path d="M27.2639 32.5896H27.2549C26.6611 32.5896 26.1797 32.1082 26.1797 31.5144V31.5054C26.1797 30.9116 26.6611 30.4302 27.2549 30.4302H27.2639C27.8577 30.4302 28.3391 30.9116 28.3391 31.5054V31.5144C28.3391 32.1082 27.8577 32.5896 27.2639 32.5896Z" fill="#F3BDB9"/>
<path d="M31.4846 32.5896H31.4755C30.8817 32.5896 30.4004 32.1082 30.4004 31.5144V31.5054C30.4004 30.9116 30.8818 30.4302 31.4755 30.4302H31.4846C32.0784 30.4302 32.5598 30.9116 32.5598 31.5054V31.5144C32.5597 32.1082 32.0783 32.5896 31.4846 32.5896Z" fill="#F3BDB9"/>
<path d="M27.2639 36.8113H27.2549C26.6611 36.8113 26.1797 36.3299 26.1797 35.7361V35.7271C26.1797 35.1332 26.6611 34.6519 27.2549 34.6519H27.2639C27.8577 34.6519 28.3391 35.1332 28.3391 35.7271V35.7361C28.3391 36.3299 27.8577 36.8113 27.2639 36.8113Z" fill="#F3BDB9"/>
<path d="M31.4846 36.8113H31.4755C30.8817 36.8113 30.4004 36.3299 30.4004 35.7361V35.7271C30.4004 35.1332 30.8818 34.6519 31.4755 34.6519H31.4846C32.0784 34.6519 32.5598 35.1332 32.5598 35.7271V35.7361C32.5597 36.3299 32.0783 36.8113 31.4846 36.8113Z" fill="#F3BDB9"/>
<path d="M35.7073 28.3684H35.6982C35.1044 28.3684 34.623 27.887 34.623 27.2932V27.2842C34.623 26.6904 35.1044 26.209 35.6982 26.209H35.7073C36.3011 26.209 36.7825 26.6904 36.7825 27.2842V27.2932C36.7825 27.887 36.3011 28.3684 35.7073 28.3684Z" fill="#F3BDB9"/>
<path d="M35.7073 36.8111H35.6982C35.1044 36.8111 34.623 36.3297 34.623 35.7359V31.5508C34.623 30.957 35.1044 30.4756 35.6982 30.4756H35.7073C36.3011 30.4756 36.7825 30.957 36.7825 31.5508V35.7359C36.7825 36.3297 36.3011 36.8111 35.7073 36.8111Z" fill="#B3EAC6"/>
<path d="M37.3417 19.2549H30.0982V13.0877C30.0982 12.7963 29.8619 12.5601 29.5705 12.5601H13.0765C12.7851 12.5601 12.5488 12.7963 12.5488 13.0877V36.6145C12.5488 36.9059 12.7851 37.1422 13.0765 37.1422H23.5537V37.3294C23.5537 38.4932 24.5005 39.44 25.6644 39.44H29.0713C29.3627 39.44 29.5989 39.2038 29.5989 38.9124C29.5989 38.621 29.3627 38.3847 29.0713 38.3847H25.6644C25.0825 38.3847 24.609 37.9113 24.609 37.3294V21.3656C24.609 20.7837 25.0825 20.3103 25.6644 20.3103H37.3417C37.9236 20.3103 38.397 20.7837 38.397 21.3656V37.3293C38.397 37.9113 37.9236 38.3847 37.3417 38.3847H33.8071C33.5157 38.3847 33.2795 38.6209 33.2795 38.9123C33.2795 39.2037 33.5157 39.44 33.8071 39.44H37.3417C38.5055 39.44 39.4524 38.4931 39.4524 37.3293V21.3656C39.4524 20.2018 38.5056 19.2549 37.3417 19.2549ZM23.5537 21.3656V36.0868H13.6042V13.6154H29.0428V19.255H25.6644C24.5006 19.2549 23.5537 20.2018 23.5537 21.3656Z" fill="#363636"/>
<path d="M36.2266 24.0279V21.8685C36.2266 21.5771 35.9904 21.3408 35.6989 21.3408H27.2054C26.914 21.3408 26.6777 21.5771 26.6777 21.8685V24.0279C26.6777 24.3193 26.914 24.5556 27.2054 24.5556H35.6989C35.9904 24.5556 36.2266 24.3193 36.2266 24.0279ZM35.1713 23.5003H27.7331V22.3962H35.1713V23.5003Z" fill="#363636"/>
<path d="M27.2597 25.6812C26.3734 25.6812 25.6523 26.4022 25.6523 27.2885C25.6523 28.1748 26.3734 28.8959 27.2597 28.8959C28.146 28.8959 28.8671 28.1748 28.8671 27.2885C28.8671 26.4022 28.146 25.6812 27.2597 25.6812ZM27.2597 27.8405C26.9553 27.8405 26.7077 27.5929 26.7077 27.2885C26.7077 26.9841 26.9554 26.7365 27.2597 26.7365C27.5641 26.7365 27.8117 26.9841 27.8117 27.2885C27.8118 27.5929 27.5641 27.8405 27.2597 27.8405Z" fill="#363636"/>
<path d="M31.4824 25.6812C30.5961 25.6812 29.875 26.4022 29.875 27.2885C29.875 28.1748 30.5961 28.8959 31.4824 28.8959C32.3687 28.8959 33.0898 28.1748 33.0898 27.2885C33.0897 26.4022 32.3687 25.6812 31.4824 25.6812ZM31.4824 27.8405C31.178 27.8405 30.9304 27.5929 30.9304 27.2885C30.9304 26.9841 31.178 26.7365 31.4824 26.7365C31.7868 26.7365 32.0344 26.9841 32.0344 27.2885C32.0344 27.5929 31.7868 27.8405 31.4824 27.8405Z" fill="#363636"/>
<path d="M27.2597 29.9023C26.3734 29.9023 25.6523 30.6234 25.6523 31.5097C25.6523 32.396 26.3734 33.1171 27.2597 33.1171C28.146 33.1171 28.8671 32.396 28.8671 31.5097C28.8671 30.6234 28.146 29.9023 27.2597 29.9023ZM27.2597 32.0617C26.9553 32.0617 26.7077 31.8141 26.7077 31.5097C26.7077 31.2053 26.9554 30.9577 27.2597 30.9577C27.5641 30.9577 27.8117 31.2053 27.8117 31.5097C27.8118 31.8141 27.5641 32.0617 27.2597 32.0617Z" fill="#363636"/>
<path d="M31.4824 29.9023C30.5961 29.9023 29.875 30.6234 29.875 31.5097C29.875 32.396 30.5961 33.1171 31.4824 33.1171C32.3687 33.1171 33.0898 32.396 33.0898 31.5097C33.0897 30.6234 32.3687 29.9023 31.4824 29.9023ZM31.4824 32.0617C31.178 32.0617 30.9304 31.8141 30.9304 31.5097C30.9304 31.2053 31.178 30.9577 31.4824 30.9577C31.7868 30.9577 32.0344 31.2053 32.0344 31.5097C32.0344 31.8141 31.7868 32.0617 31.4824 32.0617Z" fill="#363636"/>
<path d="M27.2597 34.1235C26.3734 34.1235 25.6523 34.8446 25.6523 35.7309C25.6523 36.6172 26.3734 37.3382 27.2597 37.3382C28.146 37.3382 28.8671 36.6172 28.8671 35.7309C28.8671 34.8446 28.146 34.1235 27.2597 34.1235ZM27.2597 36.283C26.9553 36.283 26.7077 36.0353 26.7077 35.7309C26.7077 35.4265 26.9554 35.1789 27.2597 35.1789C27.5641 35.1789 27.8117 35.4265 27.8117 35.7309C27.8118 36.0353 27.5641 36.283 27.2597 36.283Z" fill="#363636"/>
<path d="M31.4824 34.1235C30.5961 34.1235 29.875 34.8446 29.875 35.7309C29.875 36.6172 30.5961 37.3382 31.4824 37.3382C32.3687 37.3382 33.0898 36.6172 33.0898 35.7309C33.0897 34.8446 32.3687 34.1235 31.4824 34.1235ZM31.4824 36.283C31.178 36.283 30.9304 36.0353 30.9304 35.7309C30.9304 35.4265 31.178 35.1789 31.4824 35.1789C31.7868 35.1789 32.0344 35.4265 32.0344 35.7309C32.0344 36.0353 31.7868 36.283 31.4824 36.283Z" fill="#363636"/>
<path d="M35.7031 25.6812C34.8168 25.6812 34.0957 26.4022 34.0957 27.2885C34.0957 28.1748 34.8168 28.8959 35.7031 28.8959C36.5894 28.8959 37.3105 28.1748 37.3105 27.2885C37.3105 26.4022 36.5894 25.6812 35.7031 25.6812ZM35.7031 27.8405C35.3987 27.8405 35.1511 27.5929 35.1511 27.2885C35.1511 26.9841 35.3987 26.7365 35.7031 26.7365C36.0075 26.7365 36.2551 26.9841 36.2551 27.2885C36.2551 27.5929 36.0075 27.8405 35.7031 27.8405Z" fill="#363636"/>
<path d="M35.7031 29.9478C34.8168 29.9478 34.0957 30.6688 34.0957 31.5551V35.7312C34.0957 36.6175 34.8168 37.3386 35.7031 37.3386C36.5894 37.3386 37.3105 36.6175 37.3105 35.7312V31.5551C37.3105 30.6688 36.5894 29.9478 35.7031 29.9478ZM36.2551 35.7312C36.2551 36.0356 36.0075 36.2832 35.7031 36.2832C35.3987 36.2832 35.1511 36.0356 35.1511 35.7312V31.5551C35.1511 31.2507 35.3988 31.0031 35.7031 31.0031C36.0075 31.0031 36.2551 31.2507 36.2551 31.5551V35.7312Z" fill="#363636"/>
<path d="M21.8648 17.7163H15.5804C15.289 17.7163 15.0527 17.9526 15.0527 18.244C15.0527 18.5354 15.289 18.7716 15.5804 18.7716H21.8648C22.1562 18.7716 22.3925 18.5354 22.3925 18.244C22.3925 17.9526 22.1563 17.7163 21.8648 17.7163Z" fill="#363636"/>
<path d="M21.8648 15.6055H15.5804C15.289 15.6055 15.0527 15.8417 15.0527 16.1331C15.0527 16.4246 15.289 16.6608 15.5804 16.6608H21.8648C22.1562 16.6608 22.3925 16.4246 22.3925 16.1331C22.3925 15.8417 22.1563 15.6055 21.8648 15.6055Z" fill="#363636"/>
<path d="M21.8648 19.8267H15.5804C15.289 19.8267 15.0527 20.0629 15.0527 20.3543C15.0527 20.6457 15.289 20.882 15.5804 20.882H21.8648C22.1562 20.882 22.3925 20.6457 22.3925 20.3543C22.3925 20.0629 22.1563 19.8267 21.8648 19.8267Z" fill="#363636"/>
<path d="M21.8648 21.9375H15.5804C15.289 21.9375 15.0527 22.1737 15.0527 22.4652C15.0527 22.7566 15.289 22.9928 15.5804 22.9928H21.8648C22.1562 22.9928 22.3925 22.7566 22.3925 22.4652C22.3925 22.1737 22.1563 21.9375 21.8648 21.9375Z" fill="#363636"/>
<path d="M21.8648 24.0483H15.5804C15.289 24.0483 15.0527 24.2846 15.0527 24.576C15.0527 24.8674 15.289 25.1037 15.5804 25.1037H21.8648C22.1562 25.1037 22.3925 24.8674 22.3925 24.576C22.3925 24.2846 22.1563 24.0483 21.8648 24.0483Z" fill="#363636"/>
<path d="M31.4515 39.4401C31.7429 39.4401 31.9792 39.2039 31.9792 38.9124C31.9792 38.621 31.7429 38.3848 31.4515 38.3848C31.1601 38.3848 30.9238 38.621 30.9238 38.9124C30.9238 39.2039 31.1601 39.4401 31.4515 39.4401Z" fill="#363636"/>
<path d="M17.7071 28.5892C18.6259 28.2468 19.2149 28.8763 19.282 28.9528C19.4693 29.172 19.7988 29.1995 20.0198 29.0134C20.2419 28.8266 20.2704 28.4951 20.0836 28.2731C20.051 28.2344 19.4683 27.5592 18.5082 27.4498V27.2628C18.5082 26.9726 18.2729 26.7373 17.9827 26.7373C17.6925 26.7373 17.4573 26.9726 17.4573 27.2628V27.5644C17.4184 27.577 17.3795 27.5898 17.34 27.6045C16.7244 27.834 16.2783 28.3858 16.176 29.0445C16.0871 29.6167 16.28 30.1513 16.692 30.4745C17.0522 30.7569 17.5524 30.997 18.4184 31.3032C19.0328 31.5204 19.0192 32.019 18.9849 32.2233C18.9161 32.6323 18.572 33.0745 17.979 33.0784C17.4125 33.082 17.2364 33.054 16.7994 32.7683C16.5566 32.6094 16.2309 32.6775 16.0721 32.9205C15.9133 33.1633 15.9814 33.4889 16.2242 33.6478C16.6912 33.9532 17.0316 34.0715 17.4573 34.1116V34.417C17.4573 34.7071 17.6926 34.9424 17.9828 34.9424C18.273 34.9424 18.5082 34.7071 18.5082 34.417V34.0619C19.3569 33.8415 19.9008 33.1146 20.0213 32.3976C20.1772 31.4703 19.6738 30.6323 18.7687 30.3124C18.2461 30.1277 17.6679 29.9043 17.3407 29.6477C17.2319 29.5624 17.1848 29.3973 17.2145 29.2061C17.2489 28.9838 17.3965 28.705 17.7071 28.5892Z" fill="#363636"/>
</svg>
