<svg width="52" height="52" viewBox="0 0 52 52" fill="none" xmlns="http://www.w3.org/2000/svg">
<circle cx="26" cy="26" r="26" fill="#E1F7FF"/>
<path d="M39.5456 16.5371H29.5977V31.0489H39.5456V16.5371Z" fill="#76DE9A"/>
<path d="M22.4031 16.5371H12.4551V31.0489H22.4031V16.5371Z" fill="#76DE9A"/>
<path d="M22.4023 19.1201H17.2109L17.1894 19.3838C17.0988 20.495 16.3175 21.4478 15.2452 21.7547L15.0371 21.8142V25.7713L15.2452 25.8308C16.3175 26.1378 17.0988 27.0906 17.1894 28.2018L17.2109 28.4655H22.4023V19.1201Z" fill="#F4E7B8"/>
<path d="M36.7548 21.7547C35.6825 21.4477 34.9011 20.4949 34.8105 19.3838L34.789 19.1201H29.5977V28.4655H34.789L34.8105 28.2018C34.9011 27.0906 35.6825 26.1378 36.7548 25.8309L36.9628 25.7714V21.8143L36.7548 21.7547Z" fill="#F4E7B8"/>
<path d="M22.4031 33.2559H12.4551V35.463H22.4031V33.2559Z" fill="#3FAB64"/>
<path d="M39.5456 33.2559H29.5977V35.463H39.5456V33.2559Z" fill="#3FAB64"/>
<path d="M22.4031 31.0488H12.4551V33.256H22.4031V31.0488Z" fill="#3FAB64"/>
<path d="M39.5456 31.0488H29.5977V33.256H39.5456V31.0488Z" fill="#3FAB64"/>
<path d="M34.3806 24.3289C34.3396 24.3289 34.2979 24.3245 34.2576 24.3163C34.2173 24.3087 34.1776 24.2961 34.1397 24.2803C34.1012 24.2645 34.0647 24.245 34.0306 24.2223C33.996 24.1996 33.9637 24.1731 33.9347 24.1441C33.9057 24.1151 33.8792 24.0829 33.8565 24.0482C33.8339 24.0142 33.8143 23.9776 33.7985 23.9392C33.7827 23.9013 33.7702 23.8616 33.7626 23.8212C33.7544 23.7808 33.75 23.7392 33.75 23.6982C33.75 23.6572 33.7544 23.6156 33.7626 23.5752C33.7702 23.5349 33.7827 23.4952 33.7985 23.4573C33.8143 23.4188 33.8339 23.3822 33.8565 23.3482C33.8792 23.3135 33.9057 23.2813 33.9347 23.2523C33.9637 23.2233 33.996 23.1968 34.0306 23.1741C34.0647 23.1514 34.1012 23.1319 34.1397 23.1161C34.1776 23.1003 34.2173 23.0878 34.2576 23.0802C34.3384 23.0638 34.4222 23.0638 34.5042 23.0802C34.5439 23.0878 34.5837 23.1003 34.6222 23.1161C34.66 23.1319 34.6966 23.1514 34.7306 23.1741C34.7653 23.1968 34.7975 23.2233 34.8266 23.2523C34.8556 23.2813 34.882 23.3135 34.9047 23.3482C34.9274 23.3822 34.9469 23.4188 34.9627 23.4573C34.9785 23.4951 34.9911 23.5349 34.9987 23.5752C35.0069 23.6156 35.0113 23.6572 35.0113 23.6982C35.0113 23.7392 35.0069 23.7808 34.9987 23.8212C34.9911 23.8616 34.9785 23.9013 34.9627 23.9392C34.9469 23.9776 34.9274 24.0142 34.9047 24.0482C34.882 24.0829 34.8556 24.1151 34.8266 24.1441C34.7975 24.1731 34.7653 24.1996 34.7306 24.2223C34.6966 24.245 34.66 24.2645 34.6222 24.2803C34.5837 24.2961 34.544 24.3087 34.5042 24.3163C34.4632 24.3245 34.4217 24.3289 34.3806 24.3289Z" fill="#363636"/>
<path d="M29.5971 15.7505H22.4023V36.2494H29.5971V15.7505Z" fill="#75DBFB"/>
<path d="M39.546 15.9065H30.2283V15.7507C30.2283 15.4024 29.9459 15.1201 29.5977 15.1201H22.4032C22.0548 15.1201 21.7725 15.4024 21.7725 15.7507V15.9065H12.4548C12.1065 15.9065 11.8242 16.1888 11.8242 16.5371V31.0488V33.256V35.4632C11.8242 35.8115 12.1065 36.0938 12.4548 36.0938H21.7725V36.2495C21.7725 36.5979 22.0548 36.8802 22.4032 36.8802H29.5978C29.946 36.8802 30.2284 36.5979 30.2284 36.2495V36.0938H39.5461C39.8943 36.0938 40.1767 35.8115 40.1767 35.4632V33.256V31.0488V16.5371C40.1766 16.1888 39.8943 15.9065 39.546 15.9065ZM30.2283 24.329H32.2201C32.5683 24.329 32.8507 24.0466 32.8507 23.6983C32.8507 23.35 32.5683 23.0677 32.2201 23.0677H30.2283V19.7509H34.2234C34.4305 20.899 35.2374 21.8685 36.3323 22.2789V25.307C35.2374 25.7174 34.4305 26.687 34.2234 27.8351H30.2283V24.329ZM30.2283 31.6794H38.9154V32.6254H30.2283V31.6794ZM38.9154 17.1677V30.4182H30.2283V29.0964H34.7891C35.1175 29.0964 35.391 28.8443 35.4176 28.517L35.4391 28.2533C35.5085 27.4023 36.107 26.6726 36.9283 26.4374L37.1363 26.3779C37.407 26.3005 37.5935 26.0531 37.5935 25.7717V21.8146C37.5935 21.5331 37.4069 21.2857 37.1363 21.2083L36.9284 21.1488C36.107 20.9136 35.5085 20.1839 35.4391 19.3329L35.4176 19.0692C35.3909 18.742 35.1175 18.4898 34.7891 18.4898H30.2283V17.1677H38.9154ZM13.0855 31.6794H21.7725V32.6254H13.0855V31.6794ZM21.7725 23.0677H15.6686V22.2789C16.7635 21.8685 17.5705 20.8989 17.7776 19.7509H21.7725V23.0677ZM15.6686 24.329H21.7725V27.835H17.7775C17.5704 26.687 16.7634 25.7176 15.6685 25.3069C15.6686 25.3069 15.6686 24.329 15.6686 24.329ZM13.0855 17.1677H21.7725V18.4896H17.2118C16.8834 18.4896 16.61 18.7417 16.5833 19.069L16.5618 19.3327C16.4924 20.1837 15.894 20.9134 15.0726 21.1486L14.8646 21.2081C14.594 21.2855 14.4074 21.5329 14.4074 21.8143V25.7714C14.4074 26.0529 14.594 26.3003 14.8646 26.3777L15.0725 26.4372C15.8939 26.6723 16.4924 27.4021 16.5618 28.2531L16.5833 28.5168C16.61 28.8441 16.8835 29.0961 17.2118 29.0961H21.7726V30.418H13.0855V17.1677ZM13.0855 34.8325V33.8866H21.7725V34.8325H13.0855ZM28.9671 35.6189H26.631V21.1048C26.631 20.7565 26.3486 20.4742 26.0004 20.4742C25.6521 20.4742 25.3698 20.7565 25.3698 21.1048V35.6189H23.0337V35.4632V33.256V31.0488V28.4657V19.1202V16.5371V16.3814H28.967V16.5371V19.1202V28.4656V31.0488V33.2559V35.4631L28.9671 35.6189ZM38.9154 34.8325H30.2283V33.8866H38.9154V34.8325Z" fill="#363636"/>
<path d="M25.9998 19.5754C25.9588 19.5754 25.9172 19.571 25.8768 19.5628C25.8365 19.5552 25.7968 19.5426 25.7589 19.5269C25.7204 19.5111 25.6838 19.4915 25.6498 19.4688C25.6151 19.4461 25.5829 19.4196 25.5539 19.3906C25.5249 19.3616 25.4984 19.3294 25.4757 19.2948C25.453 19.2607 25.4335 19.2242 25.4177 19.1857C25.4019 19.1479 25.3894 19.1081 25.3818 19.0677C25.3736 19.0274 25.3691 18.9858 25.3691 18.9447C25.3691 18.7789 25.4366 18.6162 25.5539 18.4989C25.5829 18.4699 25.6151 18.4434 25.6498 18.4207C25.6838 18.398 25.7204 18.3785 25.7589 18.3627C25.7967 18.3469 25.8365 18.3343 25.8768 18.3267C25.9582 18.3104 26.0421 18.3104 26.1228 18.3267C26.1631 18.3343 26.2028 18.3469 26.2406 18.3627C26.2791 18.3785 26.3156 18.398 26.3497 18.4207C26.3843 18.4434 26.4165 18.4699 26.4455 18.4989C26.5628 18.6162 26.6304 18.7789 26.6304 18.9447C26.6304 18.9857 26.626 19.0274 26.6178 19.0677C26.6102 19.1081 26.5976 19.1478 26.5818 19.1857C26.566 19.2242 26.5465 19.2607 26.5238 19.2948C26.5011 19.3294 26.4747 19.3616 26.4456 19.3906C26.4166 19.4196 26.3844 19.4461 26.3497 19.4688C26.3157 19.4915 26.2791 19.5111 26.2406 19.5269C26.2028 19.5426 26.1631 19.5552 26.1228 19.5628C26.0824 19.571 26.0408 19.5754 25.9998 19.5754Z" fill="#363636"/>
</svg>
