<svg width="52" height="52" viewBox="0 0 52 52" fill="none" xmlns="http://www.w3.org/2000/svg">
<circle cx="26" cy="26" r="26" fill="#E1F7FF"/>
<path d="M19.0703 19.1793V15.3865H26.6747V19.0667L19.0703 19.1793Z" fill="#9D9AE8"/>
<path d="M25.5195 15.3864V13.4431H33.124V19.0089H26.6743V15.3864H25.5195Z" fill="#FFA96B"/>
<path d="M37.5266 19.0384C37.597 18.6654 37.6101 18.275 37.5575 17.8783C37.2922 15.8736 35.4519 14.4637 33.4473 14.7291V19.048L37.5266 19.0384Z" fill="#FF7D97"/>
<path d="M18.2248 38.5565C19.2227 38.5565 20.0316 37.7476 20.0316 36.7497C20.0316 35.7518 19.2227 34.9429 18.2248 34.9429C17.2269 34.9429 16.418 35.7518 16.418 36.7497C16.418 37.7476 17.2269 38.5565 18.2248 38.5565Z" fill="#FFA96B"/>
<path d="M35.1662 38.5565C36.1641 38.5565 36.973 37.7476 36.973 36.7497C36.973 35.7518 36.1641 34.9429 35.1662 34.9429C34.1683 34.9429 33.3594 35.7518 33.3594 36.7497C33.3594 37.7476 34.1683 38.5565 35.1662 38.5565Z" fill="#FFA96B"/>
<path fill-rule="evenodd" clip-rule="evenodd" d="M17.2871 19.3738H39.2744L37.2133 29.7557C37.0587 30.5365 36.5006 31.0844 35.86 31.0844H20.4692" fill="#E1F7FF"/>
<path d="M39.8967 19.0164C39.7897 18.8861 39.63 18.8106 39.4614 18.8106H38.1301C38.1657 18.4773 38.1614 18.14 38.1169 17.8043C37.9688 16.6855 37.3939 15.6915 36.4981 15.0052C35.6862 14.3831 34.6985 14.0825 33.6876 14.1419V13.4432C33.6876 13.1321 33.4354 12.8799 33.1243 12.8799H25.52C25.2089 12.8799 24.9566 13.1321 24.9566 13.4432V14.8233H19.0702C18.7592 14.8233 18.5069 15.0755 18.5069 15.3866V18.8106H17.4989L16.7783 15.7936C16.7177 15.5401 16.4911 15.3612 16.2304 15.3612H14.6766C14.3655 15.3612 14.1133 15.6134 14.1133 15.9245C14.1133 16.2356 14.3655 16.4878 14.6766 16.4878H15.7858L19.2601 31.0342L17.9444 34.3968C16.7693 34.5361 15.8547 35.5378 15.8547 36.7497C15.8547 38.0566 16.918 39.1199 18.2249 39.1199C19.5319 39.1199 20.5951 38.0566 20.5951 36.7497C20.5951 36.2939 20.4654 35.8679 20.2415 35.5061H33.1506C32.9266 35.8679 32.797 36.2939 32.797 36.7497C32.797 38.0566 33.8602 39.1199 35.1672 39.1199C36.4741 39.1199 37.5373 38.0566 37.5373 36.7497C37.5373 35.4428 36.4741 34.3796 35.1672 34.3796C35.1308 34.3796 19.1609 34.3795 19.1609 34.3795L20.2297 31.6478H36.047C36.9613 31.6478 37.745 30.9147 37.9528 29.8655L40.0139 19.4836C40.0467 19.3182 40.0037 19.1468 39.8967 19.0164ZM18.2249 37.9933C17.5392 37.9933 16.9814 37.4354 16.9814 36.7497C16.9814 36.064 17.5392 35.5062 18.2249 35.5062C18.9106 35.5062 19.4685 36.0641 19.4685 36.7497C19.4685 37.4354 18.9106 37.9933 18.2249 37.9933ZM36.4107 36.7497C36.4107 37.4355 35.8528 37.9933 35.1672 37.9933C34.4814 37.9933 33.9236 37.4354 33.9236 36.7497C33.9236 36.064 34.4815 35.5062 35.1672 35.5062C35.8528 35.5061 36.4107 36.064 36.4107 36.7497ZM38.2693 22.4858H33.0493L32.4174 19.9372H38.7753L38.2693 22.4858ZM37.5396 26.1611H33.9605L33.3286 23.6124H38.0456L37.5396 26.1611ZM30.1412 30.5212L29.3395 27.2877H33.0791L33.8808 30.5212H30.1412ZM25.2407 30.5212L24.4391 27.2877H28.1788L28.9805 30.5212H25.2407ZM20.2958 30.5212L19.5235 27.2877H23.2784L24.0801 30.5212H20.2958ZM31.2567 19.9372L31.8886 22.4858H28.1489L27.517 19.9372H31.2567ZM26.3563 19.9372L26.9882 22.4858H23.2485L22.6166 19.9372H26.3563ZM27.2675 23.6124L27.8995 26.1611H24.1598L23.5279 23.6124H27.2675ZM22.9991 26.1611H19.2544L18.6457 23.6124H22.3672L22.9991 26.1611ZM29.0601 26.1611L28.4282 23.6124H32.1679L32.7999 26.1611H29.0601ZM37.0001 17.9521C37.0381 18.2393 37.0362 18.5275 36.9947 18.8106H33.6876V15.2702C35.3162 15.1424 36.7832 16.3139 37.0001 17.9521ZM26.0832 14.0065H32.5611V18.8106H27.238V15.3865C27.238 15.0754 26.9858 14.8232 26.6747 14.8232H26.0832V14.0065ZM19.6336 15.9498H26.1114V18.8106H19.6336V15.9498ZM21.456 19.9372L22.0879 22.4858H18.3767L17.768 19.9372H21.456ZM36.047 30.5212H35.0416L34.2398 27.2877H37.316L36.8478 29.6463C36.7474 30.1533 36.4106 30.5212 36.047 30.5212Z" fill="#363636"/>
<path d="M11.9199 15.9357C11.9199 16.2424 12.1685 16.491 12.4752 16.491L13.0306 16.491C13.3372 16.491 13.5859 16.2424 13.5859 15.9357C13.5859 15.629 13.3372 15.3804 13.0306 15.3804L12.4752 15.3804C12.1685 15.3804 11.9199 15.629 11.9199 15.9357Z" fill="#363636"/>
</svg>
