<svg width="52" height="52" viewBox="0 0 52 52" fill="none" xmlns="http://www.w3.org/2000/svg">
<circle cx="26" cy="26" r="26" fill="#E1F7FF"/>
<path d="M34.8645 32.1491C35.9794 32.1491 36.8832 31.2453 36.8832 30.1303C36.8832 29.0154 35.9794 28.1116 34.8645 28.1116C33.7495 28.1116 32.8457 29.0154 32.8457 30.1303C32.8457 31.2453 33.7495 32.1491 34.8645 32.1491Z" fill="#0594C2"/>
<path d="M18.5402 32.1491C19.6552 32.1491 20.559 31.2453 20.559 30.1303C20.559 29.0154 19.6552 28.1116 18.5402 28.1116C17.4253 28.1116 16.5215 29.0154 16.5215 30.1303C16.5215 31.2453 17.4253 32.1491 18.5402 32.1491Z" fill="#0594C2"/>
<path d="M20.559 30.13C20.559 29.015 19.6551 28.1117 18.5402 28.1117C17.4321 28.1117 16.5323 29.0041 16.5213 30.1093C13.7757 29.9989 11.8535 29.4894 11.8535 29.4894V27.2774C11.8535 26.9577 11.9369 26.6432 12.095 26.3649L12.5441 25.576L12.6188 25.4449V23.8688L15.3892 23.3755C15.3892 23.3755 19.3336 19.8513 21.893 19.8513C23.2448 19.8513 25.3395 19.8657 26.4717 19.8795C27.5653 19.8933 28.6055 20.3504 29.3541 21.1474L31.3568 23.3893C31.6317 23.6969 32.0117 23.8912 32.4223 23.9326C33.992 24.0931 38.0044 24.5174 39.1917 24.7836C39.7483 24.9084 40.1434 25.4023 40.1434 25.9727V27.3773C40.1434 27.8509 39.973 28.3087 39.6633 28.6669V29.1583C39.6633 29.5374 39.3833 29.8583 39.0077 29.9097C38.3039 30.0253 37.5938 30.0955 36.8814 30.1196C36.8756 29.0093 35.9741 28.1117 34.8626 28.1117C33.7477 28.1117 32.8438 29.015 32.8438 30.13H20.559Z" fill="#75DBFB"/>
<path d="M17.418 24.4439H29.421L27.6627 22.4757C27.3453 22.1468 26.9025 21.9272 26.4437 21.9214C25.3334 21.9076 23.2392 21.9214 21.8937 21.9214C21.8035 21.9214 20.953 21.9588 19.0101 23.2617C18.3644 23.6947 17.7975 24.1352 17.418 24.4439Z" fill="#FCFCFC"/>
<path d="M38.9533 26.9009H40.1434V25.9726C40.1434 25.4114 39.7593 24.9249 39.2142 24.7892C38.649 24.6478 38.0889 24.5938 38.0889 24.5938L37.9686 24.8526C37.7655 25.2896 37.759 25.7722 37.9177 26.1955C38.0783 26.6237 38.496 26.9009 38.9533 26.9009Z" fill="#F4E7B8"/>
<path d="M11.8535 27.2776V27.8081H13.3234C13.9394 27.8081 14.4608 27.3212 14.468 26.7052C14.475 26.0928 13.9646 25.5759 13.352 25.5759H12.5441L12.0951 26.3647C11.9368 26.6429 11.8535 26.9575 11.8535 27.2776Z" fill="#FCFCFC"/>
<path d="M29.9467 24.6788C30.0393 24.4718 30.0017 24.2298 29.8506 24.0608L28.0923 22.0927C28.0874 22.0872 28.0824 22.0818 28.0773 22.0765C27.6367 21.62 27.0442 21.354 26.4516 21.3466C25.6927 21.3371 24.5064 21.3404 23.3593 21.3436C22.8323 21.3451 22.3251 21.3465 21.8946 21.3465C21.6459 21.3465 20.6801 21.4502 18.6907 22.7842C18.0186 23.2349 17.4308 23.693 17.0559 23.9979C16.8671 24.1515 16.7955 24.4072 16.877 24.6365C16.9585 24.8657 17.1755 25.0189 17.4188 25.0189H29.4219C29.6485 25.0189 29.854 24.8857 29.9467 24.6788ZM19.3312 23.7393C21.1256 22.5359 21.8913 22.4967 21.8946 22.4964C22.3162 22.4964 22.8115 22.4951 23.3268 22.4936V23.8689H19.1406C19.2032 23.8257 19.2668 23.7824 19.3312 23.7393ZM24.4768 23.8689V22.4909C25.2302 22.4896 25.9318 22.4901 26.4373 22.4964C26.7178 22.5 27.0181 22.6386 27.2427 22.8678L28.1371 23.8689H24.4768Z" fill="#363636"/>
<path d="M40.7175 25.8957C40.6839 25.0878 40.0996 24.3984 39.3131 24.2214C38.7279 24.0789 38.169 24.0239 38.1449 24.0215C38.143 24.0214 33.7624 23.4915 32.4807 23.3606C32.213 23.3335 31.9665 23.2077 31.7864 23.0062L29.7838 20.7643C29.7806 20.7607 29.7773 20.7572 29.774 20.7536C28.9236 19.8484 27.7228 19.3202 26.4794 19.3045C25.3596 19.2909 23.2499 19.2764 21.8937 19.2764C20.7157 19.2764 19.1905 19.9023 17.3606 21.1367C16.2922 21.8574 15.4416 22.5701 15.1319 22.8373L12.5188 23.3027C12.2445 23.3516 12.0446 23.5901 12.0446 23.8688V25.2925L11.5959 26.0808C11.3904 26.4426 11.2808 26.862 11.2793 27.2776V29.4894C11.2793 29.7502 11.4549 29.9784 11.707 30.0452C11.7831 30.0654 13.4936 30.5123 16.0013 30.6592C16.2463 31.8366 17.2917 32.724 18.5407 32.724C19.7734 32.724 20.8072 31.8594 21.0695 30.705H24.0367C24.3543 30.705 24.6117 30.4475 24.6117 30.13C24.6117 29.8125 24.3543 29.555 24.0367 29.555H21.0705C20.7999 28.3652 19.6948 27.5092 18.4787 27.5381C17.3267 27.5656 16.2993 28.388 16.0227 29.5084C14.3661 29.4078 13.0655 29.1683 12.4292 29.0323V28.3832H13.3242C14.2617 28.3832 15.033 27.6335 15.0436 26.7119C15.0543 25.7834 14.2812 25.0011 13.3526 25.0011H13.1945V24.3505L15.4907 23.9415C15.5956 23.9229 15.6934 23.8754 15.7729 23.8044C16.8255 22.8648 19.9771 20.4264 21.8936 20.4264C23.2456 20.4264 25.349 20.4409 26.4651 20.4544C27.3952 20.4662 28.2936 20.8604 28.9311 21.536L30.9287 23.7724C31.3007 24.1888 31.8109 24.4489 32.3645 24.5047C33.2481 24.595 35.5623 24.8369 37.2913 25.0649C37.1889 25.5044 37.2176 25.9644 37.3801 26.3976C37.622 27.0427 38.2545 27.4761 38.954 27.4761H39.5646C39.5434 27.7759 39.4267 28.0623 39.229 28.2911C39.1388 28.3955 39.089 28.529 39.089 28.667V29.1584C39.089 29.2496 39.0208 29.3277 38.9305 29.3401C38.9254 29.3408 38.9203 29.3415 38.9152 29.3424C38.4095 29.4254 37.8965 29.4845 37.384 29.5187C37.0936 28.3291 35.9637 27.4839 34.7436 27.5395C33.5951 27.5919 32.5891 28.4318 32.3337 29.555H29.0961C28.7786 29.555 28.5211 29.8125 28.5211 30.13C28.5211 30.4475 28.7786 30.705 29.0961 30.705H32.3346C32.597 31.8594 33.6308 32.724 34.8634 32.724C36.1086 32.724 37.1514 31.8418 37.4004 30.6697C37.9674 30.6338 38.5353 30.5699 39.0948 30.4783C39.7477 30.3847 40.2389 29.8188 40.2389 29.1584V28.8658C40.5498 28.4338 40.719 27.9133 40.719 27.3774V26.9011V25.9728C40.7192 25.947 40.7186 25.9213 40.7175 25.8957ZM18.5408 31.574C17.7447 31.574 17.0971 30.9263 17.0971 30.1303C17.0971 29.3519 17.7559 28.6868 18.541 28.6868C18.8146 28.6868 19.0707 28.7632 19.2891 28.896C19.7057 29.1495 19.9845 29.608 19.9845 30.1304C19.9846 30.9263 19.3369 31.574 18.5408 31.574ZM13.7351 26.3091C13.8392 26.4132 13.8955 26.5515 13.8939 26.6985C13.8904 26.9933 13.6349 27.2331 13.3243 27.2331H12.4308C12.4403 26.9674 12.5404 26.7384 12.6734 26.5126L12.8793 26.151H13.3528C13.4973 26.151 13.6332 26.2072 13.7351 26.3091ZM34.8636 31.574C34.0675 31.574 33.4199 30.9263 33.4199 30.1303C33.4199 29.3447 34.0767 28.6868 34.8634 28.6868C35.6478 28.6868 36.3074 29.348 36.3074 30.1303C36.3074 30.9263 35.6597 31.574 34.8636 31.574ZM38.4569 25.9938C38.3635 25.7446 38.358 25.4781 38.4385 25.2294C38.6843 25.2688 38.892 25.3063 39.0488 25.3408C39.3448 25.4133 39.5693 25.6594 39.5693 25.9728V26.3261H38.9542C38.7313 26.326 38.5314 26.1925 38.4569 25.9938Z" fill="#363636"/>
<path d="M26.4584 26.6919C26.4584 26.3744 26.2009 26.1169 25.8834 26.1169H24.7059C24.3883 26.1169 24.1309 26.3744 24.1309 26.6919C24.1309 27.0095 24.3883 27.2669 24.7059 27.2669H25.8834C26.2009 27.2669 26.4584 27.0095 26.4584 26.6919Z" fill="#363636"/>
<path d="M27.0772 29.91C26.9568 29.6207 26.6161 29.4789 26.3263 29.5989C26.0368 29.7188 25.8958 30.0607 26.0152 30.3498C26.1348 30.6396 26.4769 30.7804 26.7661 30.6609C27.0566 30.541 27.1961 30.1998 27.0772 29.91Z" fill="#363636"/>
</svg>
